<?xml version="1.0" encoding="UTF-8"?>
<!DOCTYPE svg PUBLIC "-//W3C//DTD SVG 1.1//EN" "http://www.w3.org/Graphics/SVG/1.1/DTD/svg11.dtd">
<svg xmlns="http://www.w3.org/2000/svg" version="1.1" width="500px" height="345px" style="shape-rendering:geometricPrecision; text-rendering:geometricPrecision; image-rendering:optimizeQuality; fill-rule:evenodd; clip-rule:evenodd" xmlns:xlink="http://www.w3.org/1999/xlink">
<g><path style="opacity:0.52" fill="#070708" d="M 33.5,-0.5 C 41.1667,-0.5 48.8333,-0.5 56.5,-0.5C 56.8333,0.5 57.5,1.16667 58.5,1.5C 58.5,2.16667 58.8333,2.5 59.5,2.5C 59.8333,3.83333 60.1667,3.83333 60.5,2.5C 63.0317,2.82858 64.0317,3.99525 63.5,6C 65.3093,8.91934 67.6426,10.2527 70.5,10C 71.9162,13.4871 74.4162,16.6538 78,19.5C 78.7175,18.5494 79.5509,18.3828 80.5,19C 81.9162,22.4871 84.4162,25.6538 88,28.5C 89.8709,27.3322 91.3709,27.8322 92.5,30C 92.1667,30.3333 91.8333,30.6667 91.5,31C 93.3333,32.8333 95.1667,34.6667 97,36.5C 97.7175,35.5494 98.5509,35.3828 99.5,36C 101.259,39.8231 104.092,43.3231 108,46.5C 108.718,45.5494 109.551,45.3828 110.5,46C 111.223,48.8109 113.056,51.3109 116,53.5C 116.718,52.5494 117.551,52.3828 118.5,53C 119.571,56.15 121.738,58.9833 125,61.5C 125.718,60.5494 126.551,60.3828 127.5,61C 129.259,64.8231 132.092,68.3231 136,71.5C 137.871,70.3322 139.371,70.8322 140.5,73C 140.167,73.3333 139.833,73.6667 139.5,74C 141.333,75.8333 143.167,77.6667 145,79.5C 145.718,78.5494 146.551,78.3828 147.5,79C 148.571,82.15 150.738,84.9833 154,87.5C 155.726,86.4238 157.559,86.2571 159.5,87C 158.5,87.3333 157.5,87.6667 156.5,88C 158.834,88.3392 161.168,88.1725 163.5,87.5C 166.5,88 169.5,88.5 172.5,89C 170.5,89.3333 168.5,89.6667 166.5,90C 171.43,90.7542 176.263,91.9209 181,93.5C 183.178,92.4764 185.345,92.6431 187.5,94C 186.5,94.3333 185.5,94.6667 184.5,95C 191.056,94.7661 196.723,97.0994 201.5,102C 211.356,103.437 221.022,102.937 230.5,100.5C 241.014,100.828 251.347,100.494 261.5,99.5C 278.516,99.5694 295.516,99.0694 312.5,98C 306.167,97.6667 299.833,97.3333 293.5,97C 305.509,95.8316 317.509,95.6649 329.5,96.5C 332.5,96 335.5,95.5 338.5,95C 336.5,94.6667 334.5,94.3333 332.5,94C 336.152,93.111 339.818,92.7776 343.5,93C 342.167,93.3333 340.833,93.6667 339.5,94C 342.866,94.3301 346.199,93.9967 349.5,93C 347.833,92.6667 346.167,92.3333 344.5,92C 350.791,91.2136 351.124,89.3802 345.5,86.5C 345.5,85.8333 345.167,85.5 344.5,85.5C 343.5,83.8333 342.167,82.5 340.5,81.5C 340.5,80.8333 340.167,80.5 339.5,80.5C 338.5,78.8333 337.167,77.5 335.5,76.5C 335.5,75.8333 335.167,75.5 334.5,75.5C 333.5,73.8333 332.167,72.5 330.5,71.5C 330.5,70.8333 330.167,70.5 329.5,70.5C 328.5,68.8333 327.167,67.5 325.5,66.5C 325.5,65.8333 325.167,65.5 324.5,65.5C 323.83,62.8342 323.83,60.3342 324.5,58C 325.399,56.7638 326.566,55.9304 328,55.5C 340.179,56.8243 352.346,56.8243 364.5,55.5C 365.831,56.5922 366.664,57.9255 367,59.5C 368.297,58.2164 369.464,58.3831 370.5,60C 369.346,60.9138 369.513,61.7471 371,62.5C 371.718,61.5494 372.551,61.3828 373.5,62C 373.381,63.2812 373.881,64.4479 375,65.5C 375.718,64.5494 376.551,64.3828 377.5,65C 377.381,66.2812 377.881,67.4479 379,68.5C 379.718,67.5494 380.551,67.3828 381.5,68C 381.133,69.7566 381.966,71.2566 384,72.5C 385.833,70.6667 387.667,68.8333 389.5,67C 389.167,66.6667 388.833,66.3333 388.5,66C 390.441,63.5464 392.775,61.713 395.5,60.5C 395.833,61.8333 396.167,61.8333 396.5,60.5C 397.167,60.5 397.5,60.1667 397.5,59.5C 402.298,55.2033 406.965,50.7033 411.5,46C 411.167,45.6667 410.833,45.3333 410.5,45C 413.167,42.3333 415.833,39.6667 418.5,37C 419.449,36.3828 420.282,36.5494 421,37.5C 428.534,30.6646 435.034,23.4979 440.5,16C 442.366,17.0084 443.699,16.5084 444.5,14.5C 445.167,14.5 445.5,14.1667 445.5,13.5C 447.34,11.832 449.34,10.332 451.5,9C 455.688,8.82382 459.688,8.32382 463.5,7.5C 467.702,7.81675 471.702,7.48342 475.5,6.5C 479.042,6.81277 482.375,6.47944 485.5,5.5C 489.702,5.81675 493.702,5.48342 497.5,4.5C 498.338,4.84171 498.672,5.50838 498.5,6.5C 497.662,6.84171 497.328,7.50838 497.5,8.5C 496.662,8.84171 496.328,9.50838 496.5,10.5C 495.662,10.8417 495.328,11.5084 495.5,12.5C 494.662,12.8417 494.328,13.5084 494.5,14.5C 493.662,14.8417 493.328,15.5084 493.5,16.5C 492.662,16.8417 492.328,17.5084 492.5,18.5C 491.662,18.8417 491.328,19.5084 491.5,20.5C 490.662,20.8417 490.328,21.5084 490.5,22.5C 489.833,22.5 489.5,22.8333 489.5,23.5C 488.596,24.209 488.263,25.209 488.5,26.5C 487.833,26.5 487.5,26.8333 487.5,27.5C 486.662,27.8417 486.328,28.5084 486.5,29.5C 485.662,29.8417 485.328,30.5084 485.5,31.5C 484.662,31.8417 484.328,32.5084 484.5,33.5C 483.662,33.8417 483.328,34.5084 483.5,35.5C 482.662,35.8417 482.328,36.5084 482.5,37.5C 481.662,37.8417 481.328,38.5084 481.5,39.5C 480.662,39.8417 480.328,40.5084 480.5,41.5C 479.662,41.8417 479.328,42.5084 479.5,43.5C 478.662,43.8417 478.328,44.5084 478.5,45.5C 477.662,45.8417 477.328,46.5084 477.5,47.5C 476.662,47.8417 476.328,48.5084 476.5,49.5C 475.662,49.8417 475.328,50.5084 475.5,51.5C 474.833,51.5 474.5,51.8333 474.5,52.5C 473.662,52.8417 473.328,53.5084 473.5,54.5C 472.662,54.8417 472.328,55.5084 472.5,56.5C 471.662,56.8417 471.328,57.5084 471.5,58.5C 470.662,58.8417 470.328,59.5084 470.5,60.5C 469.662,60.8417 469.328,61.5084 469.5,62.5C 468.662,62.8417 468.328,63.5084 468.5,64.5C 467.662,64.8417 467.328,65.5084 467.5,66.5C 466.662,66.8417 466.328,67.5084 466.5,68.5C 465.662,68.8417 465.328,69.5084 465.5,70.5C 464.662,70.8417 464.328,71.5084 464.5,72.5C 463.662,72.8417 463.328,73.5084 463.5,74.5C 462.662,74.8417 462.328,75.5084 462.5,76.5C 461.662,76.8417 461.328,77.5084 461.5,78.5C 460.094,78.9731 459.427,79.9731 459.5,81.5C 458.662,81.8417 458.328,82.5084 458.5,83.5C 457.662,83.8417 457.328,84.5084 457.5,85.5C 456.662,85.8417 456.328,86.5084 456.5,87.5C 455.662,87.8417 455.328,88.5084 455.5,89.5C 454.662,89.8417 454.328,90.5084 454.5,91.5C 453.662,91.8417 453.328,92.5084 453.5,93.5C 452.662,93.8417 452.328,94.5084 452.5,95.5C 451.662,95.8417 451.328,96.5084 451.5,97.5C 450.662,97.8417 450.328,98.5084 450.5,99.5C 449.662,99.8417 449.328,100.508 449.5,101.5C 448.662,101.842 448.328,102.508 448.5,103.5C 446.412,105.336 445.079,107.669 444.5,110.5C 443.662,110.842 443.328,111.508 443.5,112.5C 442.167,112.833 442.167,113.167 443.5,113.5C 443.5,114.167 443.833,114.5 444.5,114.5C 462.167,132.833 480.167,150.833 498.5,168.5C 498.5,169.167 498.833,169.5 499.5,169.5C 499.5,171.5 499.5,173.5 499.5,175.5C 498.609,176.11 497.609,176.443 496.5,176.5C 496.167,175.167 495.833,175.167 495.5,176.5C 494.167,176.833 494.167,177.167 495.5,177.5C 493.853,179.326 491.853,180.66 489.5,181.5C 488.833,180.167 488.167,180.167 487.5,181.5C 486.508,181.328 485.842,181.662 485.5,182.5C 484.209,182.263 483.209,182.596 482.5,183.5C 475.25,183.314 468.083,183.314 461,183.5C 460.454,182.711 459.787,181.711 459,180.5C 458.282,181.451 457.449,181.617 456.5,181C 456.619,179.719 456.119,178.552 455,177.5C 454.282,178.451 453.449,178.617 452.5,178C 450.382,176.951 448.716,175.451 447.5,173.5C 448.833,173.167 448.833,172.833 447.5,172.5C 447.5,171.833 447.167,171.5 446.5,171.5C 445.828,170.733 444.995,170.066 444,169.5C 443.282,170.451 442.449,170.617 441.5,170C 441.619,168.719 441.119,167.552 440,166.5C 439.282,167.451 438.449,167.617 437.5,167C 437.619,165.719 437.119,164.552 436,163.5C 435.282,164.451 434.449,164.617 433.5,164C 433.619,162.719 433.119,161.552 432,160.5C 431.282,161.451 430.449,161.617 429.5,161C 429.619,159.719 429.119,158.552 428,157.5C 427.586,157.957 427.086,158.291 426.5,158.5C 425.3,157.469 423.966,156.635 422.5,156C 422.619,154.719 422.119,153.552 421,152.5C 420.282,153.451 419.449,153.617 418.5,153C 417.016,151.426 415.349,150.093 413.5,149C 414.654,148.086 414.487,147.253 413,146.5C 412.282,147.451 411.449,147.617 410.5,147C 410.619,145.719 410.119,144.552 409,143.5C 408.282,144.451 407.449,144.617 406.5,144C 406.619,142.719 406.119,141.552 405,140.5C 396.104,143.211 387.27,146.877 378.5,151.5C 377.833,151.167 377.167,150.833 376.5,150.5C 376.264,151.247 375.93,152.08 375.5,153C 363.971,158.669 352.304,163.835 340.5,168.5C 340.167,167.167 339.833,167.167 339.5,168.5C 336.833,168.833 336.833,169.167 339.5,169.5C 334.925,171.787 330.259,174.121 325.5,176.5C 324.833,176.167 324.167,175.833 323.5,175.5C 323.662,177.631 322.329,178.631 319.5,178.5C 318.833,177.167 318.167,177.167 317.5,178.5C 314.833,178.833 314.833,179.167 317.5,179.5C 316.22,180.931 314.553,181.598 312.5,181.5C 311.833,180.167 311.167,180.167 310.5,181.5C 309.209,181.263 308.209,181.596 307.5,182.5C 306.508,182.328 305.842,182.662 305.5,183.5C 302.833,183.833 302.833,184.167 305.5,184.5C 304.791,185.404 303.791,185.737 302.5,185.5C 301.833,184.167 301.167,184.167 300.5,185.5C 299.209,185.263 298.209,185.596 297.5,186.5C 296.167,186.833 296.167,187.167 297.5,187.5C 295.5,187.833 293.5,188.167 291.5,188.5C 286.167,188.833 286.167,189.167 291.5,189.5C 290.081,190.451 288.415,190.784 286.5,190.5C 285.167,189.167 283.833,189.167 282.5,190.5C 280.265,190.205 278.265,190.539 276.5,191.5C 274.265,191.205 272.265,191.539 270.5,192.5C 265.167,192.833 265.167,193.167 270.5,193.5C 269.391,194.29 268.058,194.79 266.5,195C 271.192,199.669 275.358,204.502 279,209.5C 284.416,208.361 289.916,208.194 295.5,209C 290.833,209.333 286.167,209.667 281.5,210C 290.201,210.909 298.867,211.242 307.5,211C 311.5,211.667 311.5,212.333 307.5,213C 309.959,214.497 312.459,214.664 315,213.5C 315.253,214.535 316.086,215.535 317.5,216.5C 320.364,215.406 323.031,215.906 325.5,218C 326.833,218.667 326.833,219.333 325.5,220C 329.795,223.093 331.462,227.26 330.5,232.5C 329.662,232.842 329.328,233.508 329.5,234.5C 328.662,234.842 328.328,235.508 328.5,236.5C 327.833,236.5 327.5,236.833 327.5,237.5C 326.833,237.5 326.5,237.833 326.5,238.5C 325.833,238.5 325.5,238.833 325.5,239.5C 324.833,239.5 324.5,239.833 324.5,240.5C 323.167,240.833 323.167,241.167 324.5,241.5C 324.047,242.458 323.381,243.292 322.5,244C 326.667,248.167 330.833,252.333 335,256.5C 335.333,256.167 335.667,255.833 336,255.5C 338.454,257.441 340.287,259.775 341.5,262.5C 340.167,262.833 340.167,263.167 341.5,263.5C 341.5,264.167 341.833,264.5 342.5,264.5C 347.861,270.193 353.195,275.86 358.5,281.5C 358.5,282.167 358.833,282.5 359.5,282.5C 359.5,283.167 359.833,283.5 360.5,283.5C 360.5,284.167 360.833,284.5 361.5,284.5C 361.5,285.167 361.833,285.5 362.5,285.5C 362.5,286.167 362.833,286.5 363.5,286.5C 363.5,287.167 363.833,287.5 364.5,287.5C 369.502,293.524 374.835,298.524 380.5,302.5C 379.167,303.167 379.167,303.833 380.5,304.5C 380.5,305.167 380.833,305.5 381.5,305.5C 381.5,306.167 381.833,306.5 382.5,306.5C 382.5,307.167 382.833,307.5 383.5,307.5C 383.5,308.167 383.833,308.5 384.5,308.5C 384.5,309.167 384.833,309.5 385.5,309.5C 391.805,316.994 398.639,323.327 406,328.5C 404.992,330.366 405.492,331.699 407.5,332.5C 407.423,333.75 406.756,334.583 405.5,335C 406.167,335.333 406.833,335.667 407.5,336C 403.396,338.386 399.062,340.219 394.5,341.5C 393.833,340.167 393.167,340.167 392.5,341.5C 389.833,341.833 389.833,342.167 392.5,342.5C 391.791,343.404 390.791,343.737 389.5,343.5C 388.833,342.167 388.167,342.167 387.5,343.5C 386.209,343.263 385.209,343.596 384.5,344.5C 373.833,344.5 363.167,344.5 352.5,344.5C 352.167,343.167 351.833,343.167 351.5,344.5C 350.833,344.5 350.167,344.5 349.5,344.5C 346.471,342.693 344.638,340.359 344,337.5C 343.282,338.451 342.449,338.617 341.5,338C 341.867,336.243 341.034,334.743 339,333.5C 338.586,333.957 338.086,334.291 337.5,334.5C 336.169,333.408 335.336,332.074 335,330.5C 334.282,331.451 333.449,331.617 332.5,331C 331.906,329.018 330.74,327.184 329,325.5C 328.586,325.957 328.086,326.291 327.5,326.5C 326.169,325.408 325.336,324.074 325,322.5C 324.282,323.451 323.449,323.617 322.5,323C 321.075,321.638 320.242,320.138 320,318.5C 319.282,319.451 318.449,319.617 317.5,319C 316.075,317.638 315.242,316.138 315,314.5C 313.129,315.668 311.629,315.168 310.5,313C 311.654,312.086 311.487,311.253 310,310.5C 309.282,311.451 308.449,311.617 307.5,311C 306.167,310.333 306.167,309.667 307.5,309C 306.667,308.167 305.833,307.333 305,306.5C 304.282,307.451 303.449,307.617 302.5,307C 302.867,305.243 302.034,303.743 300,302.5C 299.282,303.451 298.449,303.617 297.5,303C 297.867,301.243 297.034,299.743 295,298.5C 294.586,298.957 294.086,299.291 293.5,299.5C 292.169,298.408 291.336,297.074 291,295.5C 290.282,296.451 289.449,296.617 288.5,296C 287.075,294.638 286.242,293.138 286,291.5C 285.282,292.451 284.449,292.617 283.5,292C 282.075,290.638 281.242,289.138 281,287.5C 280.282,288.451 279.449,288.617 278.5,288C 277.075,286.638 276.242,285.138 276,283.5C 275.282,284.451 274.449,284.617 273.5,284C 272.075,282.638 271.242,281.138 271,279.5C 270.282,280.451 269.449,280.617 268.5,280C 267.075,278.638 266.242,277.138 266,275.5C 265.282,276.451 264.449,276.617 263.5,276C 262.075,274.638 261.242,273.138 261,271.5C 260.282,272.451 259.449,272.617 258.5,272C 257.167,271.333 257.167,270.667 258.5,270C 257.667,269.167 256.833,268.333 256,267.5C 255.282,268.451 254.449,268.617 253.5,268C 253.867,266.243 253.034,264.743 251,263.5C 250.282,264.451 249.449,264.617 248.5,264C 248.619,262.719 248.119,261.552 247,260.5C 245.32,261.603 243.82,261.27 242.5,259.5C 236.434,261.398 230.434,262.064 224.5,261.5C 221.615,261.194 218.948,261.527 216.5,262.5C 212.818,262.335 209.152,262.501 205.5,263C 208.833,263.333 212.167,263.667 215.5,264C 211.5,264.333 207.5,264.667 203.5,265C 202.663,266.011 202.33,267.178 202.5,268.5C 201.566,269.568 201.232,270.901 201.5,272.5C 200.662,272.842 200.328,273.508 200.5,274.5C 199.596,275.209 199.263,276.209 199.5,277.5C 198.662,277.842 198.328,278.508 198.5,279.5C 197.662,279.842 197.328,280.508 197.5,281.5C 196.833,281.5 196.5,281.833 196.5,282.5C 195.662,282.842 195.328,283.508 195.5,284.5C 194.662,284.842 194.328,285.508 194.5,286.5C 193.833,286.5 193.5,286.833 193.5,287.5C 192.833,287.5 192.5,287.833 192.5,288.5C 191.662,288.842 191.328,289.508 191.5,290.5C 190.833,290.5 190.5,290.833 190.5,291.5C 189.833,291.5 189.5,291.833 189.5,292.5C 188.833,292.5 188.5,292.833 188.5,293.5C 187.833,293.5 187.5,293.833 187.5,294.5C 186.167,294.833 186.167,295.167 187.5,295.5C 187.158,296.338 186.492,296.672 185.5,296.5C 185.167,295.167 184.833,295.167 184.5,296.5C 183.167,296.833 183.167,297.167 184.5,297.5C 183.312,298.364 182.145,299.364 181,300.5C 180.667,299.833 180.333,299.167 180,298.5C 177.599,299.602 175.099,299.769 172.5,299C 174.167,298.667 175.833,298.333 177.5,298C 174.487,297.498 171.487,296.998 168.5,296.5C 168.158,295.662 167.492,295.328 166.5,295.5C 165.746,293.495 164.579,292.828 163,293.5C 162.303,291.416 161.136,289.749 159.5,288.5C 158.488,287.128 157.488,285.795 156.5,284.5C 155.87,282.25 154.87,280.25 153.5,278.5C 153.065,275.843 152.065,273.509 150.5,271.5C 149.868,267.298 148.868,263.298 147.5,259.5C 146.625,248.86 146.291,238.194 146.5,227.5C 147.451,226.081 147.784,224.415 147.5,222.5C 148.451,221.081 148.784,219.415 148.5,217.5C 150.074,215.898 150.741,213.898 150.5,211.5C 151.404,210.791 151.737,209.791 151.5,208.5C 145.672,207.501 140.005,207.501 134.5,208.5C 130.629,208.185 126.962,208.518 123.5,209.5C 109.657,209.746 95.9906,210.412 82.5,211.5C 72.5,211.5 62.5,211.5 52.5,211.5C 47.7301,210.429 42.8968,209.096 38,207.5C 34.8981,208.965 32.3981,208.298 30.5,205.5C 29.8333,204.167 29.1667,204.167 28.5,205.5C 25.763,204.969 23.0964,204.136 20.5,203C 19.5289,201.959 18.5289,201.126 17.5,200.5C 16.8333,199.167 16.1667,199.167 15.5,200.5C 14.448,200.649 13.448,200.483 12.5,200C 13.6039,198.869 13.2705,198.035 11.5,197.5C 7.69335,197.969 4.02668,197.135 0.5,195C 2.74156,193.993 2.40823,193.159 -0.5,192.5C -0.5,191.5 -0.5,190.5 -0.5,189.5C 0.833333,189.167 0.833333,188.833 -0.5,188.5C -0.5,187.833 -0.5,187.167 -0.5,186.5C 0.117425,186.611 0.617425,186.944 1,187.5C 3.16667,185.333 5.33333,183.167 7.5,181C 6.9683,178.995 7.9683,177.829 10.5,177.5C 10.8333,178.833 11.1667,178.833 11.5,177.5C 12.1667,177.5 12.5,177.167 12.5,176.5C 14.7914,175.458 15.7914,173.958 15.5,172C 16.6291,169.832 18.1291,169.332 20,170.5C 20.8333,169.667 21.6667,168.833 22.5,168C 21.1667,167.333 21.1667,166.667 22.5,166C 26.1667,163.833 29.8333,161.667 33.5,159.5C 35.0175,160.911 36.3508,160.744 37.5,159C 36.8366,157.482 35.8366,156.315 34.5,155.5C 33.9744,153.77 32.9744,152.436 31.5,151.5C 31.6716,150.508 31.3382,149.842 30.5,149.5C 30.6716,148.508 30.3382,147.842 29.5,147.5C 28.7387,143.216 27.4053,139.216 25.5,135.5C 25.7947,133.265 25.4614,131.265 24.5,129.5C 22.3621,111.687 25.1955,94.6869 33,78.5C 36.7532,73.5952 40.5865,69.5952 44.5,66.5C 47.5,66.5 50.5,66.5 53.5,66.5C 54.8333,66.1667 54.8333,65.8333 53.5,65.5C 53.5,64.8333 53.1667,64.5 52.5,64.5C 50.5419,60.3559 47.7086,57.6892 44,56.5C 43.3828,55.5509 43.5494,54.7175 44.5,54C 41.6005,50.3354 38.6005,46.8354 35.5,43.5C 35.5,42.8333 35.1667,42.5 34.5,42.5C 33.1363,40.8089 31.803,39.1423 30.5,37.5C 30.5,36.8333 30.1667,36.5 29.5,36.5C 28.1363,34.8089 26.803,33.1423 25.5,31.5C 25.5,30.8333 25.1667,30.5 24.5,30.5C 23.1363,28.8089 21.803,27.1423 20.5,25.5C 20.5,24.8333 20.1667,24.5 19.5,24.5C 18.1363,22.8089 16.803,21.1423 15.5,19.5C 15.5,18.8333 15.1667,18.5 14.5,18.5C 12.5399,16.7896 10.5399,15.123 8.5,13.5C 8.70931,12.914 9.04265,12.414 9.5,12C 6.68875,8.70648 7.02209,5.70648 10.5,3C 10.1667,2.66667 9.83333,2.33333 9.5,2C 17.5167,1.30839 25.5167,0.475059 33.5,-0.5 Z M 104.5,137.5 C 104.082,136.778 103.416,136.278 102.5,136C 103.333,135.833 104.167,135.667 105,135.5C 106.537,136.114 107.87,136.114 109,135.5C 109.5,136 110,136.5 110.5,137C 108.527,137.495 106.527,137.662 104.5,137.5 Z M 95.5,137.5 C 98.3442,136.449 101.344,136.449 104.5,137.5C 101.673,138.368 98.6727,138.368 95.5,137.5 Z M 77.5,139.5 C 76.0813,140.451 74.4147,140.784 72.5,140.5C 72.369,139.761 72.5357,139.094 73,138.5C 74.3561,139.38 75.8561,139.714 77.5,139.5 Z M 82.5,141.5 C 78.5,141.833 78.5,142.167 82.5,142.5C 81.4324,143.434 80.099,143.768 78.5,143.5C 76.8812,142.928 75.2145,142.595 73.5,142.5C 76.5715,140.934 79.5715,140.601 82.5,141.5 Z"/></g>
<g><path style="opacity:0.01" fill="#000000" d="M 58.5,1.5 C 59.6226,0.242575 60.2893,0.575908 60.5,2.5C 60.1667,2.5 59.8333,2.5 59.5,2.5C 58.8333,2.5 58.5,2.16667 58.5,1.5 Z"/></g>
<g><path style="opacity:1" fill="#dce5fc" d="M 124.5,129.5 C 119.061,128.982 114.061,129.982 109.5,132.5C 100.142,133.514 90.8082,134.514 81.5,135.5C 78.4816,135.665 75.4816,135.498 72.5,135C 73.4495,130.914 74.1162,126.747 74.5,122.5C 88.8286,121.956 103.162,121.456 117.5,121C 103.131,120.061 88.7981,118.895 74.5,117.5C 74.6661,111.824 74.4994,106.157 74,100.5C 73.6905,99.2341 73.1905,98.0674 72.5,97C 75.5589,96.3554 78.5589,95.522 81.5,94.5C 81.3764,93.8933 81.0431,93.56 80.5,93.5C 57.0449,64.8733 33.3783,36.3733 9.5,8C 11.1558,6.17058 13.1558,4.83725 15.5,4C 28.4923,2.81455 41.4923,2.14788 54.5,2C 87.5,31.6667 120.5,61.3333 153.5,91C 168.767,91.7328 183.1,95.7328 196.5,103C 199.206,105.423 198.539,106.59 194.5,106.5C 181.854,108.183 169.187,109.683 156.5,111C 149.87,112.543 143.537,114.877 137.5,118C 132.998,121.67 128.665,125.503 124.5,129.5 Z"/></g>
<g><path style="opacity:0.009" fill="#000000" d="M 497.5,4.5 C 493.298,4.18325 489.298,4.51658 485.5,5.5C 482.482,5.66463 479.482,5.49796 476.5,5C 483.64,3.55713 490.64,3.39046 497.5,4.5 Z"/></g>
<g><path style="opacity:0.009" fill="#000000" d="M 475.5,6.5 C 471.298,6.18325 467.298,6.51658 463.5,7.5C 459.818,7.6653 456.152,7.49863 452.5,7C 460.314,5.65854 467.981,5.49187 475.5,6.5 Z"/></g>
<g><path style="opacity:0.008" fill="#000000" d="M 498.5,6.5 C 498.833,6.5 499.167,6.5 499.5,6.5C 499.5,7.16667 499.5,7.83333 499.5,8.5C 499.167,8.5 498.833,8.5 498.5,8.5C 498.5,7.83333 498.5,7.16667 498.5,6.5 Z"/></g>
<g><path style="opacity:0.008" fill="#000000" d="M 497.5,8.5 C 497.833,8.5 498.167,8.5 498.5,8.5C 498.672,9.49162 498.338,10.1583 497.5,10.5C 497.5,9.83333 497.5,9.16667 497.5,8.5 Z"/></g>
<g><path style="opacity:1" fill="#dce5fc" d="M 394.5,132.5 C 394.389,133.117 394.056,133.617 393.5,134C 369.215,142.154 344.881,150.154 320.5,158C 312.991,160.335 305.324,161.835 297.5,162.5C 297.294,153.012 297.127,143.345 297,133.5C 292.866,132.26 288.699,132.26 284.5,133.5C 282.751,132.015 280.751,131.015 278.5,130.5C 280.655,130.628 282.655,130.128 284.5,129C 275.667,128.833 266.833,128.667 258,128.5C 236.417,128.706 214.917,129.872 193.5,132C 184.193,125.516 174.526,119.683 164.5,114.5C 164.5,113.833 164.5,113.167 164.5,112.5C 185.864,110.07 207.197,107.237 228.5,104C 260.86,103.274 293.194,101.94 325.5,100C 336.886,98.3206 348.219,96.3206 359.5,94C 365.231,92.6354 370.231,89.9687 374.5,86C 400.47,61.6975 426.137,37.0308 451.5,12C 465.504,10.6187 479.504,9.61873 493.5,9C 475.237,43.5252 457.237,78.1919 439.5,113C 458.126,132.626 477.126,151.96 496.5,171C 486.861,180.482 475.528,183.149 462.5,179C 440.323,162.819 418.156,146.652 396,130.5C 394.97,130.836 394.47,131.503 394.5,132.5 Z"/></g>
<g><path style="opacity:0.01" fill="#000000" d="M 496.5,10.5 C 496.833,10.5 497.167,10.5 497.5,10.5C 497.672,11.4916 497.338,12.1583 496.5,12.5C 496.5,11.8333 496.5,11.1667 496.5,10.5 Z"/></g>
<g><path style="opacity:0.01" fill="#000000" d="M 445.5,13.5 C 444.833,13.5 444.5,13.8333 444.5,14.5C 443.957,14.44 443.624,14.1067 443.5,13.5C 444.257,12.2267 444.923,12.2267 445.5,13.5 Z"/></g>
<g><path style="opacity:0.01" fill="#000000" d="M 495.5,12.5 C 495.833,12.5 496.167,12.5 496.5,12.5C 496.672,13.4916 496.338,14.1583 495.5,14.5C 495.5,13.8333 495.5,13.1667 495.5,12.5 Z"/></g>
<g><path style="opacity:0.008" fill="#000000" d="M 494.5,14.5 C 494.833,14.5 495.167,14.5 495.5,14.5C 495.672,15.4916 495.338,16.1583 494.5,16.5C 494.5,15.8333 494.5,15.1667 494.5,14.5 Z"/></g>
<g><path style="opacity:0.01" fill="#000000" d="M 493.5,16.5 C 493.833,16.5 494.167,16.5 494.5,16.5C 494.672,17.4916 494.338,18.1583 493.5,18.5C 493.5,17.8333 493.5,17.1667 493.5,16.5 Z"/></g>
<g><path style="opacity:0.007" fill="#000101" d="M 14.5,18.5 C 15.1667,18.5 15.5,18.8333 15.5,19.5C 15.2533,21.9752 14.5866,21.9752 13.5,19.5C 13.6236,18.8933 13.9569,18.56 14.5,18.5 Z"/></g>
<g><path style="opacity:0.008" fill="#000000" d="M 492.5,18.5 C 492.833,18.5 493.167,18.5 493.5,18.5C 493.672,19.4916 493.338,20.1583 492.5,20.5C 492.5,19.8333 492.5,19.1667 492.5,18.5 Z"/></g>
<g><path style="opacity:0.012" fill="#000000" d="M 491.5,20.5 C 491.833,20.5 492.167,20.5 492.5,20.5C 492.315,21.1701 491.981,21.1701 491.5,20.5 Z"/></g>
<g><path style="opacity:0.006" fill="#000000" d="M 490.5,22.5 C 491.471,23.9621 491.138,25.2954 489.5,26.5C 489.5,25.5 489.5,24.5 489.5,23.5C 490.167,23.5 490.5,23.1667 490.5,22.5 Z"/></g>
<g><path style="opacity:0.008" fill="#000100" d="M 19.5,24.5 C 20.1667,24.5 20.5,24.8333 20.5,25.5C 20.2533,27.9752 19.5866,27.9752 18.5,25.5C 18.6236,24.8933 18.9569,24.56 19.5,24.5 Z"/></g>
<g><path style="opacity:0.012" fill="#000000" d="M 488.5,26.5 C 488.833,26.5 489.167,26.5 489.5,26.5C 489.315,27.1701 488.981,27.1701 488.5,26.5 Z"/></g>
<g><path style="opacity:0.01" fill="#000000" d="M 487.5,27.5 C 487.833,27.5 488.167,27.5 488.5,27.5C 488.672,28.4916 488.338,29.1583 487.5,29.5C 487.5,28.8333 487.5,28.1667 487.5,27.5 Z"/></g>
<g><path style="opacity:0.008" fill="#000000" d="M 486.5,29.5 C 486.833,29.5 487.167,29.5 487.5,29.5C 487.672,30.4916 487.338,31.1583 486.5,31.5C 486.5,30.8333 486.5,30.1667 486.5,29.5 Z"/></g>
<g><path style="opacity:0.007" fill="#000101" d="M 24.5,30.5 C 25.1667,30.5 25.5,30.8333 25.5,31.5C 25.2533,33.9752 24.5866,33.9752 23.5,31.5C 23.6236,30.8933 23.9569,30.56 24.5,30.5 Z"/></g>
<g><path style="opacity:0.008" fill="#000000" d="M 485.5,31.5 C 485.833,31.5 486.167,31.5 486.5,31.5C 486.672,32.4916 486.338,33.1583 485.5,33.5C 485.5,32.8333 485.5,32.1667 485.5,31.5 Z"/></g>
<g><path style="opacity:0.01" fill="#000000" d="M 484.5,33.5 C 484.833,33.5 485.167,33.5 485.5,33.5C 485.672,34.4916 485.338,35.1583 484.5,35.5C 484.5,34.8333 484.5,34.1667 484.5,33.5 Z"/></g>
<g><path style="opacity:0.01" fill="#000000" d="M 483.5,35.5 C 483.833,35.5 484.167,35.5 484.5,35.5C 484.672,36.4916 484.338,37.1583 483.5,37.5C 483.5,36.8333 483.5,36.1667 483.5,35.5 Z"/></g>
<g><path style="opacity:0.007" fill="#010101" d="M 29.5,36.5 C 30.1667,36.5 30.5,36.8333 30.5,37.5C 30.2533,39.9752 29.5866,39.9752 28.5,37.5C 28.6236,36.8933 28.9569,36.56 29.5,36.5 Z"/></g>
<g><path style="opacity:0.01" fill="#000000" d="M 482.5,37.5 C 482.833,37.5 483.167,37.5 483.5,37.5C 483.672,38.4916 483.338,39.1583 482.5,39.5C 482.5,38.8333 482.5,38.1667 482.5,37.5 Z"/></g>
<g><path style="opacity:0.01" fill="#000000" d="M 481.5,39.5 C 481.833,39.5 482.167,39.5 482.5,39.5C 482.672,40.4916 482.338,41.1583 481.5,41.5C 481.5,40.8333 481.5,40.1667 481.5,39.5 Z"/></g>
<g><path style="opacity:0.008" fill="#000000" d="M 480.5,41.5 C 480.833,41.5 481.167,41.5 481.5,41.5C 481.672,42.4916 481.338,43.1583 480.5,43.5C 480.5,42.8333 480.5,42.1667 480.5,41.5 Z"/></g>
<g><path style="opacity:0.007" fill="#010101" d="M 34.5,42.5 C 35.1667,42.5 35.5,42.8333 35.5,43.5C 35.2533,45.9752 34.5866,45.9752 33.5,43.5C 33.6236,42.8933 33.9569,42.56 34.5,42.5 Z"/></g>
<g><path style="opacity:0.008" fill="#000000" d="M 479.5,43.5 C 479.833,43.5 480.167,43.5 480.5,43.5C 480.672,44.4916 480.338,45.1583 479.5,45.5C 479.5,44.8333 479.5,44.1667 479.5,43.5 Z"/></g>
<g><path style="opacity:0.01" fill="#000000" d="M 478.5,45.5 C 478.833,45.5 479.167,45.5 479.5,45.5C 479.672,46.4916 479.338,47.1583 478.5,47.5C 478.5,46.8333 478.5,46.1667 478.5,45.5 Z"/></g>
<g><path style="opacity:0.008" fill="#000000" d="M 477.5,47.5 C 477.833,47.5 478.167,47.5 478.5,47.5C 478.672,48.4916 478.338,49.1583 477.5,49.5C 477.5,48.8333 477.5,48.1667 477.5,47.5 Z"/></g>
<g><path style="opacity:0.012" fill="#000000" d="M 476.5,49.5 C 476.833,49.5 477.167,49.5 477.5,49.5C 477.315,50.1701 476.981,50.1701 476.5,49.5 Z"/></g>
<g><path style="opacity:0.012" fill="#000000" d="M 475.5,51.5 C 476.833,52.1667 476.833,52.1667 475.5,51.5 Z"/></g>
<g><path style="opacity:0.006" fill="#000000" d="M 474.5,52.5 C 474.833,52.5 475.167,52.5 475.5,52.5C 475.771,54.3797 475.104,55.713 473.5,56.5C 473.5,55.8333 473.5,55.1667 473.5,54.5C 474.338,54.1583 474.672,53.4916 474.5,52.5 Z"/></g>
<g><path style="opacity:0.008" fill="#000000" d="M 472.5,56.5 C 472.833,56.5 473.167,56.5 473.5,56.5C 473.672,57.4916 473.338,58.1583 472.5,58.5C 472.5,57.8333 472.5,57.1667 472.5,56.5 Z"/></g>
<g><path style="opacity:0.01" fill="#000000" d="M 397.5,59.5 C 396.833,59.5 396.5,59.8333 396.5,60.5C 396.167,60.5 395.833,60.5 395.5,60.5C 395.711,58.5759 396.377,58.2426 397.5,59.5 Z"/></g>
<g><path style="opacity:0.008" fill="#000000" d="M 471.5,58.5 C 471.833,58.5 472.167,58.5 472.5,58.5C 472.672,59.4916 472.338,60.1583 471.5,60.5C 471.5,59.8333 471.5,59.1667 471.5,58.5 Z"/></g>
<g><path style="opacity:1" fill="#dae2f9" d="M 330.5,58.5 C 341.172,58.3335 351.839,58.5002 362.5,59C 369.386,63.9361 376.053,69.1028 382.5,74.5C 375.662,83.5164 366.828,89.5164 356,92.5C 346.042,83.5429 336.375,74.2096 327,64.5C 326.651,61.6695 327.817,59.6695 330.5,58.5 Z"/></g>
<g><path style="opacity:0.008" fill="#000000" d="M 470.5,60.5 C 470.833,60.5 471.167,60.5 471.5,60.5C 471.672,61.4916 471.338,62.1583 470.5,62.5C 470.5,61.8333 470.5,61.1667 470.5,60.5 Z"/></g>
<g><path style="opacity:0.01" fill="#000000" d="M 469.5,62.5 C 469.833,62.5 470.167,62.5 470.5,62.5C 470.672,63.4916 470.338,64.1583 469.5,64.5C 469.5,63.8333 469.5,63.1667 469.5,62.5 Z"/></g>
<g><path style="opacity:0.016" fill="#000000" d="M 52.5,64.5 C 53.1667,64.5 53.5,64.8333 53.5,65.5C 53.5,65.8333 53.5,66.1667 53.5,66.5C 51.5759,66.2893 51.2426,65.6226 52.5,64.5 Z"/></g>
<g><path style="opacity:0.008" fill="#000000" d="M 468.5,64.5 C 468.833,64.5 469.167,64.5 469.5,64.5C 469.672,65.4916 469.338,66.1583 468.5,66.5C 468.5,65.8333 468.5,65.1667 468.5,64.5 Z"/></g>
<g><path style="opacity:0.008" fill="#000000" d="M 44.5,66.5 C 44.8966,65.475 45.5632,65.3083 46.5,66C 45.9056,66.4643 45.2389,66.631 44.5,66.5 Z"/></g>
<g><path style="opacity:0.008" fill="#010101" d="M 324.5,65.5 C 325.167,65.5 325.5,65.8333 325.5,66.5C 325.44,67.0431 325.107,67.3764 324.5,67.5C 323.227,66.7435 323.227,66.0768 324.5,65.5 Z"/></g>
<g><path style="opacity:0.01" fill="#000000" d="M 467.5,66.5 C 467.833,66.5 468.167,66.5 468.5,66.5C 468.672,67.4916 468.338,68.1583 467.5,68.5C 467.5,67.8333 467.5,67.1667 467.5,66.5 Z"/></g>
<g><path style="opacity:0.01" fill="#000000" d="M 466.5,68.5 C 466.833,68.5 467.167,68.5 467.5,68.5C 467.672,69.4916 467.338,70.1583 466.5,70.5C 466.5,69.8333 466.5,69.1667 466.5,68.5 Z"/></g>
<g><path style="opacity:0.01" fill="#010101" d="M 329.5,70.5 C 330.167,70.5 330.5,70.8333 330.5,71.5C 330.44,72.0431 330.107,72.3764 329.5,72.5C 328.227,71.7435 328.227,71.0768 329.5,70.5 Z"/></g>
<g><path style="opacity:0.008" fill="#000000" d="M 465.5,70.5 C 465.833,70.5 466.167,70.5 466.5,70.5C 466.672,71.4916 466.338,72.1583 465.5,72.5C 465.5,71.8333 465.5,71.1667 465.5,70.5 Z"/></g>
<g><path style="opacity:0.008" fill="#000000" d="M 464.5,72.5 C 464.833,72.5 465.167,72.5 465.5,72.5C 465.672,73.4916 465.338,74.1583 464.5,74.5C 464.5,73.8333 464.5,73.1667 464.5,72.5 Z"/></g>
<g><path style="opacity:0.016" fill="#000000" d="M 463.5,74.5 C 463.833,74.5 464.167,74.5 464.5,74.5C 464.315,75.1701 463.981,75.1701 463.5,74.5 Z"/></g>
<g><path style="opacity:0.01" fill="#010101" d="M 334.5,75.5 C 335.167,75.5 335.5,75.8333 335.5,76.5C 335.44,77.0431 335.107,77.3764 334.5,77.5C 333.227,76.7435 333.227,76.0768 334.5,75.5 Z"/></g>
<g><path style="opacity:0.008" fill="#000000" d="M 462.5,76.5 C 463.833,77.1667 463.833,77.8333 462.5,78.5C 462.5,77.8333 462.5,77.1667 462.5,76.5 Z"/></g>
<g><path style="opacity:0.012" fill="#000000" d="M 461.5,78.5 C 461.833,78.5 462.167,78.5 462.5,78.5C 462.315,79.1701 461.981,79.1701 461.5,78.5 Z"/></g>
<g><path style="opacity:0.01" fill="#010101" d="M 339.5,80.5 C 340.167,80.5 340.5,80.8333 340.5,81.5C 340.44,82.0431 340.107,82.3764 339.5,82.5C 338.227,81.7435 338.227,81.0768 339.5,80.5 Z"/></g>
<g><path style="opacity:0.012" fill="#000000" d="M 460.5,80.5 C 461.833,81.1667 461.833,81.1667 460.5,80.5 Z"/></g>
<g><path style="opacity:1" fill="#a3aabc" d="M 68.5,73.5 C 82.3675,83.9584 98.0342,89.7917 115.5,91C 104.496,91.7147 93.4964,92.048 82.5,92C 77.5928,85.9381 72.9261,79.7714 68.5,73.5 Z"/></g>
<g><path style="opacity:0.008" fill="#000000" d="M 459.5,81.5 C 459.833,81.5 460.167,81.5 460.5,81.5C 460.672,82.4916 460.338,83.1583 459.5,83.5C 459.5,82.8333 459.5,82.1667 459.5,81.5 Z"/></g>
<g><path style="opacity:0.006" fill="#000000" d="M 458.5,83.5 C 458.833,83.5 459.167,83.5 459.5,83.5C 459.672,84.4916 459.338,85.1583 458.5,85.5C 458.5,84.8333 458.5,84.1667 458.5,83.5 Z"/></g>
<g><path style="opacity:0.01" fill="#010101" d="M 344.5,85.5 C 345.167,85.5 345.5,85.8333 345.5,86.5C 345.44,87.0431 345.107,87.3764 344.5,87.5C 343.227,86.7435 343.227,86.0768 344.5,85.5 Z"/></g>
<g><path style="opacity:0.008" fill="#000000" d="M 457.5,85.5 C 457.833,85.5 458.167,85.5 458.5,85.5C 458.672,86.4916 458.338,87.1583 457.5,87.5C 457.5,86.8333 457.5,86.1667 457.5,85.5 Z"/></g>
<g><path style="opacity:0.01" fill="#000000" d="M 456.5,87.5 C 456.833,87.5 457.167,87.5 457.5,87.5C 457.672,88.4916 457.338,89.1583 456.5,89.5C 456.5,88.8333 456.5,88.1667 456.5,87.5 Z"/></g>
<g><path style="opacity:0.008" fill="#000000" d="M 455.5,89.5 C 455.833,89.5 456.167,89.5 456.5,89.5C 456.672,90.4916 456.338,91.1583 455.5,91.5C 455.5,90.8333 455.5,90.1667 455.5,89.5 Z"/></g>
<g><path style="opacity:0.008" fill="#000000" d="M 454.5,91.5 C 454.833,91.5 455.167,91.5 455.5,91.5C 455.672,92.4916 455.338,93.1583 454.5,93.5C 454.5,92.8333 454.5,92.1667 454.5,91.5 Z"/></g>
<g><path style="opacity:0.008" fill="#000000" d="M 453.5,93.5 C 453.833,93.5 454.167,93.5 454.5,93.5C 454.672,94.4916 454.338,95.1583 453.5,95.5C 453.5,94.8333 453.5,94.1667 453.5,93.5 Z"/></g>
<g><path style="opacity:0.008" fill="#000000" d="M 452.5,95.5 C 452.833,95.5 453.167,95.5 453.5,95.5C 453.672,96.4916 453.338,97.1583 452.5,97.5C 452.5,96.8333 452.5,96.1667 452.5,95.5 Z"/></g>
<g><path style="opacity:0.01" fill="#000000" d="M 261.5,99.5 C 250.986,99.1724 240.653,99.5058 230.5,100.5C 227.813,100.664 225.146,100.497 222.5,100C 244.795,98.1948 267.128,97.5281 289.5,98C 279.991,98.1701 270.658,98.6701 261.5,99.5 Z"/></g>
<g><path style="opacity:0.01" fill="#000000" d="M 451.5,97.5 C 451.833,97.5 452.167,97.5 452.5,97.5C 452.672,98.4916 452.338,99.1583 451.5,99.5C 451.5,98.8333 451.5,98.1667 451.5,97.5 Z"/></g>
<g><path style="opacity:0.008" fill="#000000" d="M 450.5,99.5 C 450.833,99.5 451.167,99.5 451.5,99.5C 451.672,100.492 451.338,101.158 450.5,101.5C 450.5,100.833 450.5,100.167 450.5,99.5 Z"/></g>
<g><path style="opacity:0.008" fill="#000000" d="M 449.5,101.5 C 449.833,101.5 450.167,101.5 450.5,101.5C 450.672,102.492 450.338,103.158 449.5,103.5C 449.5,102.833 449.5,102.167 449.5,101.5 Z"/></g>
<g><path style="opacity:0.012" fill="#000000" d="M 448.5,103.5 C 448.833,103.5 449.167,103.5 449.5,103.5C 449.315,104.17 448.981,104.17 448.5,103.5 Z"/></g>
<g><path style="opacity:0.004" fill="#000000" d="M 22.5,104.5 C 23.6225,106.288 23.7891,108.288 23,110.5C 22.5045,108.527 22.3379,106.527 22.5,104.5 Z"/></g>
<g><path style="opacity:0.009" fill="#000000" d="M 444.5,110.5 C 445.833,111.833 445.833,113.167 444.5,114.5C 443.833,114.5 443.5,114.167 443.5,113.5C 443.5,113.167 443.5,112.833 443.5,112.5C 444.338,112.158 444.672,111.492 444.5,110.5 Z"/></g>
<g><path style="opacity:1" fill="#b5caee" d="M 47.5,109.5 C 49.4109,109.574 50.5776,110.574 51,112.5C 52.9132,118.094 51.0798,120.261 45.5,119C 43.1116,118.697 40.9449,117.863 39,116.5C 38.3162,115.216 38.4829,114.049 39.5,113C 42.3093,111.907 44.976,110.74 47.5,109.5 Z"/></g>
<g><path style="opacity:1" fill="#797e8b" d="M 427.5,113.5 C 430.85,113.335 434.183,113.502 437.5,114C 445.803,123.304 454.469,132.304 463.5,141C 462.833,141.667 462.167,141.667 461.5,141C 452.354,132.184 442.354,124.517 431.5,118C 427.167,117.333 422.833,117.333 418.5,118C 412.276,119.713 406.276,121.713 400.5,124C 408.448,117.605 417.448,114.105 427.5,113.5 Z"/></g>
<g><path style="opacity:1" fill="#90afda" d="M 152.5,116.5 C 157.361,116.43 161.361,118.263 164.5,122C 157.944,124.77 151.944,128.27 146.5,132.5C 141.635,134.763 137.302,137.763 133.5,141.5C 132.417,141.539 131.417,141.873 130.5,142.5C 129.378,141.37 128.044,140.703 126.5,140.5C 126.047,139.542 125.381,138.708 124.5,138C 126.141,136.871 127.141,135.371 127.5,133.5C 131.298,130.204 134.964,126.704 138.5,123C 142.877,119.975 147.544,117.808 152.5,116.5 Z"/></g>
<g><path style="opacity:1" fill="#a1a7b9" d="M 74.5,117.5 C 88.7981,118.895 103.131,120.061 117.5,121C 103.162,121.456 88.8286,121.956 74.5,122.5C 74.5,120.833 74.5,119.167 74.5,117.5 Z"/></g>
<g><path style="opacity:1" fill="#6d717d" d="M 74.5,117.5 C 74.5,119.167 74.5,120.833 74.5,122.5C 73.8826,122.611 73.3826,122.944 73,123.5C 71.0128,135.486 70.3461,135.486 71,123.5C 70.1307,128.508 69.4641,128.175 69,122.5C 68.2588,123.641 67.4255,123.641 66.5,122.5C 65.5344,120.604 65.2011,118.604 65.5,116.5C 67.7925,116.244 69.9592,116.577 72,117.5C 72.066,111.163 72.066,104.83 72,98.5C 73.0393,104.935 73.8726,111.269 74.5,117.5 Z"/></g>
<g><path style="opacity:1" fill="#dbe4fb" d="M 164.5,112.5 C 164.5,113.167 164.5,113.833 164.5,114.5C 171.938,121.437 179.271,128.603 186.5,136C 198.497,136.044 210.497,135.711 222.5,135C 241.127,133.037 259.794,131.537 278.5,130.5C 280.751,131.015 282.751,132.015 284.5,133.5C 280.563,133.207 276.73,133.54 273,134.5C 272.951,145.588 272.117,156.588 270.5,167.5C 206.961,177.172 143.294,186.339 79.5,195C 64.4414,195.894 49.4414,195.394 34.5,193.5C 34.5,195.167 34.5,196.833 34.5,198.5C 48.437,200.398 62.437,200.898 76.5,200C 108.248,196.112 139.915,192.112 171.5,188C 168.975,188.424 166.975,189.59 165.5,191.5C 160.769,194.271 157.436,198.271 155.5,203.5C 129.886,205.65 104.22,207.15 78.5,208C 69.8333,208.667 61.1667,208.667 52.5,208C 36.0043,204.001 20.0043,198.501 4.5,191.5C 3.47899,190.998 3.31232,190.332 4,189.5C 19.0756,171.589 37.9089,159.589 60.5,153.5C 59.7101,154.794 58.7101,155.961 57.5,157C 60.1634,156.848 61.8301,155.348 62.5,152.5C 81.6451,145.693 101.312,140.693 121.5,137.5C 123.188,135.146 125.188,133.146 127.5,131.5C 127.5,132.167 127.5,132.833 127.5,133.5C 125.704,134.793 124.037,136.293 122.5,138C 123.471,139.481 124.804,140.315 126.5,140.5C 128.519,143.929 130.852,144.262 133.5,141.5C 138.365,139.237 142.698,136.237 146.5,132.5C 153.271,129.28 159.937,125.78 166.5,122C 163.536,119.19 160.202,117.024 156.5,115.5C 156.167,114.833 155.833,114.167 155.5,113.5C 158.482,113.037 161.482,112.704 164.5,112.5 Z"/></g>
<g><path style="opacity:0.004" fill="#000000" d="M 22.5,122.5 C 23.6129,123.946 23.7796,125.613 23,127.5C 22.5065,125.866 22.3398,124.199 22.5,122.5 Z"/></g>
<g><path style="opacity:1" fill="#282b31" d="M 156.5,115.5 C 160.202,117.024 163.536,119.19 166.5,122C 159.937,125.78 153.271,129.28 146.5,132.5C 151.944,128.27 157.944,124.77 164.5,122C 161.361,118.263 157.361,116.43 152.5,116.5C 152.899,115.479 154.233,115.146 156.5,115.5 Z"/></g>
<g><path style="opacity:1" fill="#8a909f" d="M 80.5,93.5 C 81.0431,93.56 81.3764,93.8933 81.5,94.5C 78.5589,95.522 75.5589,96.3554 72.5,97C 73.1905,98.0674 73.6905,99.2341 74,100.5C 74.4994,106.157 74.6661,111.824 74.5,117.5C 73.8726,111.269 73.0393,104.935 72,98.5C 72.066,104.83 72.066,111.163 72,117.5C 69.9592,116.577 67.7925,116.244 65.5,116.5C 65.2011,118.604 65.5344,120.604 66.5,122.5C 67.4255,123.641 68.2588,123.641 69,122.5C 69.4641,128.175 70.1307,128.508 71,123.5C 70.3461,135.486 71.0128,135.486 73,123.5C 73.3826,122.944 73.8826,122.611 74.5,122.5C 74.1162,126.747 73.4495,130.914 72.5,135C 75.4816,135.498 78.4816,135.665 81.5,135.5C 71.4297,136.566 61.4297,135.4 51.5,132C 49.5981,128.938 47.9315,125.772 46.5,122.5C 54.1502,120.042 55.4836,115.542 50.5,109C 47.4665,108.34 44.6331,108.84 42,110.5C 41.073,106.551 41.9064,103.051 44.5,100C 56.6794,98.1455 68.6794,95.9789 80.5,93.5 Z"/></g>
<g><path style="opacity:1" fill="#a4aabc" d="M 164.5,114.5 C 174.526,119.683 184.193,125.516 193.5,132C 214.917,129.872 236.417,128.706 258,128.5C 266.833,128.667 275.667,128.833 284.5,129C 282.655,130.128 280.655,130.628 278.5,130.5C 259.794,131.537 241.127,133.037 222.5,135C 210.497,135.711 198.497,136.044 186.5,136C 179.271,128.603 171.938,121.437 164.5,114.5 Z"/></g>
<g><path style="opacity:1" fill="#4e535d" d="M 155.5,113.5 C 155.833,114.167 156.167,114.833 156.5,115.5C 154.233,115.146 152.899,115.479 152.5,116.5C 147.544,117.808 142.877,119.975 138.5,123C 134.964,126.704 131.298,130.204 127.5,133.5C 127.5,132.833 127.5,132.167 127.5,131.5C 134.206,121.477 143.539,115.477 155.5,113.5 Z"/></g>
<g><path style="opacity:1" fill="#30353f" d="M 173.5,131.5 C 171.438,129.436 169.105,127.769 166.5,126.5C 164.484,127.178 162.484,127.844 160.5,128.5C 166.236,122.626 170.57,123.626 173.5,131.5 Z"/></g>
<g><path style="opacity:1" fill="#91b0da" d="M 173.5,131.5 C 175.094,134.764 177.427,137.431 180.5,139.5C 178.833,142.833 177.167,146.167 175.5,149.5C 174.094,149.973 173.427,150.973 173.5,152.5C 170.395,155.275 168.062,158.608 166.5,162.5C 165.094,162.973 164.427,163.973 164.5,165.5C 162.612,166.94 160.945,168.606 159.5,170.5C 154.637,168.574 150.303,165.908 146.5,162.5C 145.243,159.573 143.243,157.239 140.5,155.5C 139.627,153.114 138.127,151.114 136,149.5C 135.421,148.072 135.588,146.738 136.5,145.5C 139.089,144.581 141.089,142.914 142.5,140.5C 144.404,140.262 145.738,139.262 146.5,137.5C 148.027,137.573 149.027,136.906 149.5,135.5C 151.674,135.25 153.341,134.25 154.5,132.5C 156.027,132.573 157.027,131.906 157.5,130.5C 159.027,130.573 160.027,129.906 160.5,128.5C 162.484,127.844 164.484,127.178 166.5,126.5C 169.105,127.769 171.438,129.436 173.5,131.5 Z"/></g>
<g><path style="opacity:0.004" fill="#000000" d="M 24.5,129.5 C 24.6567,130.873 24.49,132.207 24,133.5C 23.235,131.934 23.4017,130.601 24.5,129.5 Z"/></g>
<g><path style="opacity:1" fill="#9fa5b7" d="M 124.5,129.5 C 120.845,137.564 115.845,138.564 109.5,132.5C 114.061,129.982 119.061,128.982 124.5,129.5 Z"/></g>
<g><path style="opacity:1" fill="#252931" d="M 160.5,128.5 C 160.027,129.906 159.027,130.573 157.5,130.5C 157.973,129.094 158.973,128.427 160.5,128.5 Z"/></g>
<g><path style="opacity:1" fill="#262b33" d="M 157.5,130.5 C 157.027,131.906 156.027,132.573 154.5,132.5C 154.973,131.094 155.973,130.427 157.5,130.5 Z"/></g>
<g><path style="opacity:1" fill="#292f38" d="M 154.5,132.5 C 153.341,134.25 151.674,135.25 149.5,135.5C 150.659,133.75 152.326,132.75 154.5,132.5 Z"/></g>
<g><path style="opacity:1" fill="#8e93a3" d="M 297.5,162.5 C 296.791,163.404 295.791,163.737 294.5,163.5C 295.084,156.995 295.751,150.495 296.5,144C 296.453,141.111 296.12,138.278 295.5,135.5C 288.507,134.432 281.507,134.432 274.5,135.5C 274.796,145.912 274.13,156.245 272.5,166.5C 273.833,166.5 275.167,166.5 276.5,166.5C 274.735,167.461 272.735,167.795 270.5,167.5C 272.117,156.588 272.951,145.588 273,134.5C 276.73,133.54 280.563,133.207 284.5,133.5C 288.699,132.26 292.866,132.26 297,133.5C 297.127,143.345 297.294,153.012 297.5,162.5 Z"/></g>
<g><path style="opacity:0.004" fill="#000000" d="M 25.5,135.5 C 25.631,136.239 25.4643,136.906 25,137.5C 24.3083,136.563 24.475,135.897 25.5,135.5 Z"/></g>
<g><path style="opacity:1" fill="#2d323c" d="M 173.5,131.5 C 176.573,133.569 178.906,136.236 180.5,139.5C 177.427,137.431 175.094,134.764 173.5,131.5 Z"/></g>
<g><path style="opacity:1" fill="#dce5fb" d="M 294.5,163.5 C 288.469,164.314 282.469,165.314 276.5,166.5C 275.167,166.5 273.833,166.5 272.5,166.5C 274.13,156.245 274.796,145.912 274.5,135.5C 281.507,134.432 288.507,134.432 295.5,135.5C 296.12,138.278 296.453,141.111 296.5,144C 295.751,150.495 295.084,156.995 294.5,163.5 Z"/></g>
<g><path style="opacity:1" fill="#252932" d="M 149.5,135.5 C 149.027,136.906 148.027,137.573 146.5,137.5C 146.973,136.094 147.973,135.427 149.5,135.5 Z"/></g>
<g><path style="opacity:1" fill="#525f74" d="M 313.5,139.5 C 310.838,137.732 307.838,137.065 304.5,137.5C 306.011,135.559 308.011,135.059 310.5,136C 312.426,136.422 313.426,137.589 313.5,139.5 Z"/></g>
<g><path style="opacity:1" fill="#373e4a" d="M 330.5,133.5 C 331.496,133.414 332.329,133.748 333,134.5C 334.324,141.505 331.49,144.005 324.5,142C 322.556,139.847 322.056,137.347 323,134.5C 325.357,132.354 327.857,132.021 330.5,133.5 Z"/></g>
<g><path style="opacity:1" fill="#8faed8" d="M 330.5,133.5 C 333.922,139.256 332.255,141.756 325.5,141C 322.329,135.638 323.996,133.138 330.5,133.5 Z"/></g>
<g><path style="opacity:1" fill="#292f38" d="M 127.5,133.5 C 127.141,135.371 126.141,136.871 124.5,138C 125.381,138.708 126.047,139.542 126.5,140.5C 124.804,140.315 123.471,139.481 122.5,138C 124.037,136.293 125.704,134.793 127.5,133.5 Z"/></g>
<g><path style="opacity:1" fill="#262b34" d="M 146.5,137.5 C 145.738,139.262 144.404,140.262 142.5,140.5C 143.262,138.738 144.596,137.738 146.5,137.5 Z"/></g>
<g><path style="opacity:1" fill="#91b0da" d="M 304.5,137.5 C 307.838,137.065 310.838,137.732 313.5,139.5C 313.948,145.555 311.281,147.721 305.5,146C 303.162,143.458 302.828,140.625 304.5,137.5 Z"/></g>
<g><path style="opacity:0.004" fill="#000000" d="M 25.5,139.5 C 26.525,139.897 26.6917,140.563 26,141.5C 25.5357,140.906 25.369,140.239 25.5,139.5 Z"/></g>
<g><path style="opacity:1" fill="#2a2d33" d="M 146.5,132.5 C 142.698,136.237 138.365,139.237 133.5,141.5C 137.302,137.763 141.635,134.763 146.5,132.5 Z"/></g>
<g><path style="opacity:1" fill="#91afda" d="M 279.5,148.5 C 279.517,146.435 279.85,144.435 280.5,142.5C 283.445,141.532 286.445,141.366 289.5,142C 292.915,147.031 291.582,150.198 285.5,151.5C 283.199,151.016 281.199,150.016 279.5,148.5 Z"/></g>
<g><path style="opacity:1" fill="#444c59" d="M 279.5,148.5 C 281.199,150.016 283.199,151.016 285.5,151.5C 291.582,150.198 292.915,147.031 289.5,142C 286.445,141.366 283.445,141.532 280.5,142.5C 284.139,138.612 287.972,138.612 292,142.5C 294.385,146.457 293.552,149.624 289.5,152C 287.167,152.667 284.833,152.667 282.5,152C 280.574,151.578 279.574,150.411 279.5,148.5 Z"/></g>
<g><path style="opacity:0.004" fill="#000000" d="M 26.5,142.5 C 27.8333,143.167 27.8333,143.167 26.5,142.5 Z"/></g>
<g><path style="opacity:1" fill="#24282d" d="M 126.5,140.5 C 128.044,140.703 129.378,141.37 130.5,142.5C 131.417,141.873 132.417,141.539 133.5,141.5C 130.852,144.262 128.519,143.929 126.5,140.5 Z"/></g>
<g><path style="opacity:1" fill="#2b313c" d="M 142.5,140.5 C 141.089,142.914 139.089,144.581 136.5,145.5C 137.911,143.086 139.911,141.419 142.5,140.5 Z"/></g>
<g><path style="opacity:1" fill="#414955" d="M 268.5,153.5 C 268.519,145.359 264.519,142.192 256.5,144C 255.069,144.465 253.903,145.299 253,146.5C 252.503,149.146 252.336,151.813 252.5,154.5C 249.122,147.278 251.622,142.945 260,141.5C 267.594,142.542 270.427,146.542 268.5,153.5 Z"/></g>
<g><path style="opacity:1" fill="#363941" d="M 180.5,139.5 C 181.376,139.369 182.043,139.702 182.5,140.5C 180.494,143.829 178.161,146.829 175.5,149.5C 177.167,146.167 178.833,142.833 180.5,139.5 Z"/></g>
<g><path style="opacity:1" fill="#91b0da" d="M 268.5,153.5 C 263.44,158.366 258.107,158.7 252.5,154.5C 252.336,151.813 252.503,149.146 253,146.5C 253.903,145.299 255.069,144.465 256.5,144C 264.519,142.192 268.519,145.359 268.5,153.5 Z"/></g>
<g><path style="opacity:0.004" fill="#000000" d="M 27.5,145.5 C 28.8333,146.167 28.8333,146.167 27.5,145.5 Z"/></g>
<g><path style="opacity:1" fill="#303640" d="M 280.5,142.5 C 279.85,144.435 279.517,146.435 279.5,148.5C 278.861,147.903 278.528,147.07 278.5,146C 278.387,144.301 279.053,143.134 280.5,142.5 Z"/></g>
<g><path style="opacity:1" fill="#2d3139" d="M 136.5,145.5 C 135.588,146.738 135.421,148.072 136,149.5C 138.127,151.114 139.627,153.114 140.5,155.5C 137.473,153.471 135.14,150.804 133.5,147.5C 134.005,146.081 135.005,145.415 136.5,145.5 Z"/></g>
<g><path style="opacity:1" fill="#4a5260" d="M 304.5,137.5 C 302.828,140.625 303.162,143.458 305.5,146C 311.281,147.721 313.948,145.555 313.5,139.5C 315.319,146.189 312.652,149.022 305.5,148C 300.723,144.689 300.389,141.189 304.5,137.5 Z"/></g>
<g><path style="opacity:0.004" fill="#000000" d="M 29.5,147.5 C 28.8333,148.167 28.8333,148.167 29.5,147.5 Z"/></g>
<g><path style="opacity:1" fill="#343b46" d="M 237.5,147.5 C 239.027,147.427 240.027,148.094 240.5,149.5C 238.973,149.573 237.973,148.906 237.5,147.5 Z"/></g>
<g><path style="opacity:1" fill="#91b0da" d="M 237.5,147.5 C 237.973,148.906 238.973,149.573 240.5,149.5C 243.424,156.569 241.091,160.235 233.5,160.5C 230.376,160.6 227.71,159.6 225.5,157.5C 225.438,149.575 229.438,146.242 237.5,147.5 Z"/></g>
<g><path style="opacity:0.004" fill="#000000" d="M 30.5,149.5 C 29.8333,150.167 29.8333,150.167 30.5,149.5 Z"/></g>
<g><path style="opacity:1" fill="#2c2e34" d="M 175.5,149.5 C 175.573,151.027 174.906,152.027 173.5,152.5C 173.427,150.973 174.094,149.973 175.5,149.5 Z"/></g>
<g><path style="opacity:1" fill="#2e343e" d="M 184.5,143.5 C 185.152,144.449 185.486,145.615 185.5,147C 184.17,155.803 183.17,164.637 182.5,173.5C 177.156,173.666 171.823,173.499 166.5,173C 172.328,163.017 178.328,153.184 184.5,143.5 Z"/></g>
<g><path style="opacity:1" fill="#414956" d="M 237.5,147.5 C 229.438,146.242 225.438,149.575 225.5,157.5C 223.623,156.341 223.123,154.674 224,152.5C 227.028,146.674 231.528,145.008 237.5,147.5 Z"/></g>
<g><path style="opacity:0.004" fill="#000000" d="M 31.5,151.5 C 30.8333,152.167 30.8333,152.167 31.5,151.5 Z"/></g>
<g><path style="opacity:0.004" fill="#000000" d="M 34.5,155.5 C 33.8333,156.167 33.8333,156.167 34.5,155.5 Z"/></g>
<g><path style="opacity:1" fill="#8a909e" d="M 62.5,152.5 C 61.8301,155.348 60.1634,156.848 57.5,157C 58.7101,155.961 59.7101,154.794 60.5,153.5C 60.8417,152.662 61.5084,152.328 62.5,152.5 Z"/></g>
<g><path style="opacity:1" fill="#92b1dc" d="M 182.5,148.5 C 183.152,149.449 183.486,150.615 183.5,152C 182.462,158.468 181.796,164.968 181.5,171.5C 177.08,171.467 172.746,171.633 168.5,172C 173.304,164.222 177.971,156.388 182.5,148.5 Z"/></g>
<g><path style="opacity:1" fill="#2d3138" d="M 173.5,152.5 C 171.938,156.392 169.605,159.725 166.5,162.5C 168.062,158.608 170.395,155.275 173.5,152.5 Z"/></g>
<g><path style="opacity:1" fill="#3d434f" d="M 268.5,153.5 C 267.075,157.304 264.242,158.971 260,158.5C 256.294,159.069 253.794,157.736 252.5,154.5C 258.107,158.7 263.44,158.366 268.5,153.5 Z"/></g>
<g><path style="opacity:1" fill="#30353d" d="M 140.5,155.5 C 143.243,157.239 145.243,159.573 146.5,162.5C 143.757,160.761 141.757,158.427 140.5,155.5 Z"/></g>
<g><path style="opacity:1" fill="#484f5c" d="M 240.5,149.5 C 244.467,152.876 244.467,156.376 240.5,160C 235.833,163.333 231.167,163.333 226.5,160C 225.748,159.329 225.414,158.496 225.5,157.5C 227.71,159.6 230.376,160.6 233.5,160.5C 241.091,160.235 243.424,156.569 240.5,149.5 Z"/></g>
<g><path style="opacity:1" fill="#2f3239" d="M 166.5,162.5 C 166.573,164.027 165.906,165.027 164.5,165.5C 164.427,163.973 165.094,162.973 166.5,162.5 Z"/></g>
<g><path style="opacity:1" fill="#30343c" d="M 146.5,162.5 C 150.303,165.908 154.637,168.574 159.5,170.5C 160.945,168.606 162.612,166.94 164.5,165.5C 163.759,168.341 162.092,170.341 159.5,171.5C 153.811,170.179 149.478,167.179 146.5,162.5 Z"/></g>
<g><path style="opacity:1" fill="#30353e" d="M 196.5,168.5 C 193.203,170.601 189.537,171.935 185.5,172.5C 186.255,162.841 186.922,153.175 187.5,143.5C 209.491,138.299 215.657,145.632 206,165.5C 203.066,167.193 199.899,168.193 196.5,168.5 Z"/></g>
<g><path style="opacity:1" fill="#90afd9" d="M 196.5,168.5 C 193.5,169.167 190.5,169.833 187.5,170.5C 187.307,161.883 187.974,153.383 189.5,145C 208.981,140.501 214.147,147.001 205,164.5C 201.953,165.562 199.12,166.895 196.5,168.5 Z"/></g>
<g><path style="opacity:0.016" fill="#000000" d="M 499.5,167.5 C 499.5,167.833 499.5,168.167 499.5,168.5C 498.83,168.019 498.83,167.685 499.5,167.5 Z"/></g>
<g><path style="opacity:0.012" fill="#000000" d="M 339.5,168.5 C 339.833,168.5 340.167,168.5 340.5,168.5C 340.315,169.17 339.981,169.17 339.5,168.5 Z"/></g>
<g><path style="opacity:0.007" fill="#000000" d="M 446.5,171.5 C 447.167,171.5 447.5,171.833 447.5,172.5C 447.5,172.833 447.5,173.167 447.5,173.5C 444.54,172.968 444.207,172.301 446.5,171.5 Z"/></g>
<g><path style="opacity:0.012" fill="#000000" d="M 12.5,176.5 C 11.8333,176.5 11.5,176.833 11.5,177.5C 11.1667,177.5 10.8333,177.5 10.5,177.5C 10.7107,175.576 11.3774,175.243 12.5,176.5 Z"/></g>
<g><path style="opacity:0.012" fill="#000000" d="M 495.5,176.5 C 495.833,176.5 496.167,176.5 496.5,176.5C 496.315,177.17 495.981,177.17 495.5,176.5 Z"/></g>
<g><path style="opacity:1" fill="#6f737f" d="M 394.5,132.5 C 395.479,133.765 396.479,135.099 397.5,136.5C 393.012,138.577 388.679,140.91 384.5,143.5C 384.265,142.903 383.765,142.57 383,142.5C 360.284,150.224 337.451,157.724 314.5,165C 307.52,166.329 300.52,167.496 293.5,168.5C 293.598,170.553 292.931,172.22 291.5,173.5C 291.196,176.579 290.196,179.413 288.5,182C 280.972,184.144 273.305,185.644 265.5,186.5C 266.656,182.207 267.656,177.874 268.5,173.5C 237.129,177.671 205.796,182.171 174.5,187C 181.882,188.189 187.882,191.689 192.5,197.5C 192.5,198.167 192.5,198.833 192.5,199.5C 191.448,199.351 190.448,199.517 189.5,200C 191.661,202.149 192.828,204.649 193,207.5C 190.642,203.442 187.808,199.775 184.5,196.5C 186.017,196.511 187.184,197.177 188,198.5C 188.5,198 189,197.5 189.5,197C 182.847,188.835 174.847,187.002 165.5,191.5C 166.975,189.59 168.975,188.424 171.5,188C 139.915,192.112 108.248,196.112 76.5,200C 62.437,200.898 48.437,200.398 34.5,198.5C 34.5,196.833 34.5,195.167 34.5,193.5C 49.4414,195.394 64.4414,195.894 79.5,195C 143.294,186.339 206.961,177.172 270.5,167.5C 272.735,167.795 274.735,167.461 276.5,166.5C 282.469,165.314 288.469,164.314 294.5,163.5C 295.791,163.737 296.791,163.404 297.5,162.5C 305.324,161.835 312.991,160.335 320.5,158C 344.881,150.154 369.215,142.154 393.5,134C 394.056,133.617 394.389,133.117 394.5,132.5 Z"/></g>
<g><path style="opacity:1" fill="#dbe4fa" d="M 291.5,173.5 C 290.086,175.867 288.752,178.367 287.5,181C 280.487,182.737 273.487,184.07 266.5,185C 267.938,180.33 269.938,175.996 272.5,172C 279.134,170.67 285.8,170.003 292.5,170C 291.663,171.011 291.33,172.178 291.5,173.5 Z"/></g>
<g><path style="opacity:0.01" fill="#000000" d="M 317.5,179.5 C 317.5,179.167 317.5,178.833 317.5,178.5C 318.167,178.5 318.833,178.5 319.5,178.5C 319.158,179.338 318.492,179.672 317.5,179.5 Z"/></g>
<g><path style="opacity:0.01" fill="#000000" d="M 310.5,182.5 C 310.5,182.167 310.5,181.833 310.5,181.5C 311.167,181.5 311.833,181.5 312.5,181.5C 312.158,182.338 311.492,182.672 310.5,182.5 Z"/></g>
<g><path style="opacity:0.008" fill="#000000" d="M 487.5,182.5 C 487.5,182.167 487.5,181.833 487.5,181.5C 488.167,181.5 488.833,181.5 489.5,181.5C 489.158,182.338 488.492,182.672 487.5,182.5 Z"/></g>
<g><path style="opacity:0.008" fill="#000000" d="M 307.5,183.5 C 307.5,183.167 307.5,182.833 307.5,182.5C 308.5,182.5 309.5,182.5 310.5,182.5C 309.791,183.404 308.791,183.737 307.5,183.5 Z"/></g>
<g><path style="opacity:0.01" fill="#000000" d="M 485.5,182.5 C 486.167,182.5 486.833,182.5 487.5,182.5C 486.833,183.833 486.167,183.833 485.5,182.5 Z"/></g>
<g><path style="opacity:0.012" fill="#000000" d="M 305.5,184.5 C 305.5,184.167 305.5,183.833 305.5,183.5C 306.167,183.5 306.833,183.5 307.5,183.5C 307.158,184.338 306.492,184.672 305.5,184.5 Z"/></g>
<g><path style="opacity:0.012" fill="#000000" d="M 482.5,184.5 C 482.5,184.167 482.5,183.833 482.5,183.5C 485.167,183.833 485.167,184.167 482.5,184.5 Z"/></g>
<g><path style="opacity:0.01" fill="#000000" d="M 482.5,184.5 C 477.015,185.652 471.349,185.818 465.5,185C 471.157,184.501 476.824,184.334 482.5,184.5 Z"/></g>
<g><path style="opacity:0.012" fill="#000000" d="M 300.5,185.5 C 301.167,185.5 301.833,185.5 302.5,185.5C 301.833,186.833 301.167,186.833 300.5,185.5 Z"/></g>
<g><path style="opacity:0.012" fill="#000000" d="M 297.5,187.5 C 297.5,187.167 297.5,186.833 297.5,186.5C 300.167,186.833 300.167,187.167 297.5,187.5 Z"/></g>
<g><path style="opacity:0.012" fill="#000000" d="M 291.5,189.5 C 291.5,189.167 291.5,188.833 291.5,188.5C 294.167,188.833 294.167,189.167 291.5,189.5 Z"/></g>
<g><path style="opacity:0.011" fill="#000000" d="M 282.5,190.5 C 283.833,190.5 285.167,190.5 286.5,190.5C 285.167,191.833 283.833,191.833 282.5,190.5 Z"/></g>
<g><path style="opacity:0.008" fill="#000000" d="M 276.5,191.5 C 278.199,191.34 279.866,191.506 281.5,192C 277.914,193.108 274.247,193.608 270.5,193.5C 270.5,193.167 270.5,192.833 270.5,192.5C 272.735,192.795 274.735,192.461 276.5,191.5 Z"/></g>
<g><path style="opacity:1" fill="#585b65" d="M 184.5,196.5 C 175.036,191.543 167.37,193.543 161.5,202.5C 160.833,202.5 160.167,202.5 159.5,202.5C 164.014,194.743 170.68,191.576 179.5,193C 181.584,193.697 183.251,194.864 184.5,196.5 Z"/></g>
<g><path style="opacity:1" fill="#a3a9bb" d="M 184.5,196.5 C 183.251,194.864 181.584,193.697 179.5,193C 170.68,191.576 164.014,194.743 159.5,202.5C 158.432,203.434 157.099,203.768 155.5,203.5C 157.436,198.271 160.769,194.271 165.5,191.5C 174.847,187.002 182.847,188.835 189.5,197C 189,197.5 188.5,198 188,198.5C 187.184,197.177 186.017,196.511 184.5,196.5 Z"/></g>
<g><path style="opacity:1" fill="#a8aec1" d="M 193.5,199.5 C 193.167,199.5 192.833,199.5 192.5,199.5C 192.5,198.833 192.5,198.167 192.5,197.5C 200.962,194.457 209.629,191.624 218.5,189C 228.609,188.058 238.609,188.725 248.5,191C 229.627,191.258 211.293,194.092 193.5,199.5 Z"/></g>
<g><path style="opacity:0.01" fill="#000000" d="M 15.5,200.5 C 16.1667,200.5 16.8333,200.5 17.5,200.5C 16.8333,201.833 16.1667,201.833 15.5,200.5 Z"/></g>
<g><path style="opacity:0.012" fill="#000000" d="M 28.5,205.5 C 29.1667,205.5 29.8333,205.5 30.5,205.5C 29.8333,206.833 29.1667,206.833 28.5,205.5 Z"/></g>
<g><path style="opacity:1" fill="#9399a9" d="M 184.5,196.5 C 187.808,199.775 190.642,203.442 193,207.5C 192.828,204.649 191.661,202.149 189.5,200C 190.448,199.517 191.448,199.351 192.5,199.5C 192.833,199.5 193.167,199.5 193.5,199.5C 196.675,204.846 199.009,210.513 200.5,216.5C 194.062,211.907 187.728,207.073 181.5,202C 179.19,201.503 176.857,201.337 174.5,201.5C 166.847,201.258 167.014,200.258 175,198.5C 178.783,199.334 182.283,200.5 185.5,202C 178.244,195.868 171.244,196.035 164.5,202.5C 163.5,202.5 162.5,202.5 161.5,202.5C 167.37,193.543 175.036,191.543 184.5,196.5 Z"/></g>
<g><path style="opacity:1" fill="#5b5e68" d="M 174.5,201.5 C 171.375,202.479 168.042,202.813 164.5,202.5C 171.244,196.035 178.244,195.868 185.5,202C 182.283,200.5 178.783,199.334 175,198.5C 167.014,200.258 166.847,201.258 174.5,201.5 Z"/></g>
<g><path style="opacity:0.01" fill="#000000" d="M 134.5,208.5 C 137.85,208.335 141.183,208.502 144.5,209C 137.533,209.997 130.533,210.497 123.5,210.5C 123.5,210.167 123.5,209.833 123.5,209.5C 127.371,209.815 131.038,209.482 134.5,208.5 Z"/></g>
<g><path style="opacity:0.008" fill="#000000" d="M 150.5,211.5 C 150.167,211.5 149.833,211.5 149.5,211.5C 149.833,208.833 150.167,208.833 150.5,211.5 Z"/></g>
<g><path style="opacity:0.01" fill="#000000" d="M 123.5,210.5 C 119.019,211.648 114.352,211.815 109.5,211C 114.155,210.501 118.821,210.334 123.5,210.5 Z"/></g>
<g><path style="opacity:0.009" fill="#000000" d="M 52.5,211.5 C 62.5,212.833 72.5,212.833 82.5,211.5C 90.5069,211.334 98.5069,211.5 106.5,212C 88.1779,213.187 69.8446,213.521 51.5,213C 45.136,212.019 45.4694,211.519 52.5,211.5 Z"/></g>
<g><path style="opacity:0.004" fill="#000000" d="M 149.5,211.5 C 149.649,212.552 149.483,213.552 149,214.5C 148.26,213.251 148.427,212.251 149.5,211.5 Z"/></g>
<g><path style="opacity:1" fill="#dce5fc" d="M 384.5,143.5 C 357.974,155.929 331.307,168.095 304.5,180C 299.823,181.673 295.157,183.34 290.5,185C 278.961,186.754 267.628,189.254 256.5,192.5C 263.683,199.517 271.016,206.35 278.5,213C 294.672,212.693 310.006,216.026 324.5,223C 328.405,227.492 328.239,231.992 324,236.5C 321.5,238.333 319,240.167 316.5,242C 345,271.833 373.5,301.667 402,331.5C 402.688,332.332 402.521,332.998 401.5,333.5C 386.058,341.225 369.724,343.725 352.5,341C 317.016,312.093 281.349,283.427 245.5,255C 235.202,256.159 224.869,257.325 214.5,258.5C 210.833,258.5 207.167,258.5 203.5,258.5C 204.275,253.203 204.608,247.87 204.5,242.5C 209.511,242.666 214.511,242.499 219.5,242C 214.582,241.805 209.749,241.305 205,240.5C 204.247,233.48 203.414,226.48 202.5,219.5C 201.833,218.5 201.167,217.5 200.5,216.5C 199.009,210.513 196.675,204.846 193.5,199.5C 211.293,194.092 229.627,191.258 248.5,191C 238.609,188.725 228.609,188.058 218.5,189C 209.629,191.624 200.962,194.457 192.5,197.5C 187.882,191.689 181.882,188.189 174.5,187C 205.796,182.171 237.129,177.671 268.5,173.5C 267.656,177.874 266.656,182.207 265.5,186.5C 273.305,185.644 280.972,184.144 288.5,182C 290.196,179.413 291.196,176.579 291.5,173.5C 292.931,172.22 293.598,170.553 293.5,168.5C 300.52,167.496 307.52,166.329 314.5,165C 337.451,157.724 360.284,150.224 383,142.5C 383.765,142.57 384.265,142.903 384.5,143.5 Z"/></g>
<g><path style="opacity:1" fill="#969cad" d="M 264.5,203.5 C 267.964,206.462 271.297,209.629 274.5,213C 254.22,215.252 233.887,216.252 213.5,216C 229.417,214.22 245.083,211.22 260.5,207C 262.544,206.502 263.878,205.335 264.5,203.5 Z"/></g>
<g><path style="opacity:0.01" fill="#000000" d="M 148.5,217.5 C 147.475,217.103 147.308,216.437 148,215.5C 148.464,216.094 148.631,216.761 148.5,217.5 Z"/></g>
<g><path style="opacity:0.008" fill="#000000" d="M 147.5,222.5 C 146.427,221.749 146.26,220.749 147,219.5C 147.483,220.448 147.649,221.448 147.5,222.5 Z"/></g>
<g><path style="opacity:0.006" fill="#000000" d="M 146.5,227.5 C 145.402,226.399 145.235,225.066 146,223.5C 146.49,224.793 146.657,226.127 146.5,227.5 Z"/></g>
<g><path style="opacity:0.013" fill="#000000" d="M 331.5,232.5 C 331.337,230.143 331.503,227.81 332,225.5C 332.796,228.039 332.629,230.372 331.5,232.5 Z"/></g>
<g><path style="opacity:1" fill="#9399a9" d="M 193.5,221.5 C 194.497,221.47 195.164,221.97 195.5,223C 197.223,228.396 197.723,233.896 197,239.5C 196.769,235.416 196.102,231.416 195,227.5C 194.643,231.51 194.81,235.51 195.5,239.5C 194.883,239.389 194.383,239.056 194,238.5C 193.333,229.167 192.667,229.167 192,238.5C 190.829,233.153 189.663,227.819 188.5,222.5C 190.117,221.962 191.784,221.629 193.5,221.5 Z"/></g>
<g><path style="opacity:0.01" fill="#000000" d="M 144.5,230.5 C 145.655,237.655 145.822,244.988 145,252.5C 144.5,245.174 144.334,237.841 144.5,230.5 Z"/></g>
<g><path style="opacity:0.008" fill="#000000" d="M 330.5,232.5 C 330.833,232.5 331.167,232.5 331.5,232.5C 331.672,233.492 331.338,234.158 330.5,234.5C 330.5,233.833 330.5,233.167 330.5,232.5 Z"/></g>
<g><path style="opacity:0.008" fill="#000000" d="M 329.5,234.5 C 329.833,234.5 330.167,234.5 330.5,234.5C 330.672,235.492 330.338,236.158 329.5,236.5C 329.5,235.833 329.5,235.167 329.5,234.5 Z"/></g>
<g><path style="opacity:0.008" fill="#000000" d="M 328.5,236.5 C 328.833,236.5 329.167,236.5 329.5,236.5C 329.315,237.17 328.981,237.17 328.5,236.5 Z"/></g>
<g><path style="opacity:0.012" fill="#000000" d="M 327.5,237.5 C 327.833,237.5 328.167,237.5 328.5,237.5C 328.315,238.17 327.981,238.17 327.5,237.5 Z"/></g>
<g><path style="opacity:0.012" fill="#000000" d="M 326.5,238.5 C 326.833,238.5 327.167,238.5 327.5,238.5C 327.315,239.17 326.981,239.17 326.5,238.5 Z"/></g>
<g><path style="opacity:0.012" fill="#000000" d="M 325.5,239.5 C 325.833,239.5 326.167,239.5 326.5,239.5C 326.315,240.17 325.981,240.17 325.5,239.5 Z"/></g>
<g><path style="opacity:1" fill="#b3c9ed" d="M 172.5,237.5 C 176.254,238.828 177.421,241.494 176,245.5C 172.826,246.728 169.659,246.561 166.5,245C 164.993,244.163 164.493,242.996 165,241.5C 167.514,239.996 170.014,238.662 172.5,237.5 Z"/></g>
<g><path style="opacity:1" fill="#676b76" d="M 184.5,223.5 C 185.568,222.566 186.901,222.232 188.5,222.5C 189.663,227.819 190.829,233.153 192,238.5C 192.667,229.167 193.333,229.167 194,238.5C 194.383,239.056 194.883,239.389 195.5,239.5C 195.5,240.833 195.5,242.167 195.5,243.5C 194.5,243.5 193.5,243.5 192.5,243.5C 191.778,247.391 190.944,251.391 190,255.5C 189.814,251.484 189.814,247.484 190,243.5C 188.908,246.044 188.241,248.711 188,251.5C 187.667,248.833 187.333,246.167 187,243.5C 186.654,246.576 185.988,249.576 185,252.5C 184.454,249.145 184.621,245.812 185.5,242.5C 185.423,240.701 184.923,239.034 184,237.5C 183.827,242.584 183.161,247.584 182,252.5C 181.94,249.197 182.107,245.864 182.5,242.5C 182.899,237.192 181.232,232.692 177.5,229C 174.975,228.104 172.808,228.604 171,230.5C 170.833,230.167 170.667,229.833 170.5,229.5C 171.67,227.745 173.337,226.745 175.5,226.5C 178.42,227.749 180.753,229.749 182.5,232.5C 183.041,230.477 182.541,228.477 181,226.5C 179.89,224.963 178.39,224.297 176.5,224.5C 177.919,223.549 179.585,223.216 181.5,223.5C 182.959,226.924 184.292,230.424 185.5,234C 185.85,235.257 186.517,235.591 187.5,235C 186.424,233.274 186.257,231.441 187,229.5C 187.511,231.878 188.178,234.212 189,236.5C 189.611,232.318 188.944,228.318 187,224.5C 186.329,223.748 185.496,223.414 184.5,223.5 Z"/></g>
<g><path style="opacity:1" fill="#999fb0" d="M 181.5,223.5 C 182.5,223.5 183.5,223.5 184.5,223.5C 185.496,223.414 186.329,223.748 187,224.5C 188.944,228.318 189.611,232.318 189,236.5C 188.178,234.212 187.511,231.878 187,229.5C 186.257,231.441 186.424,233.274 187.5,235C 186.517,235.591 185.85,235.257 185.5,234C 184.292,230.424 182.959,226.924 181.5,223.5 Z"/></g>
<g><path style="opacity:0.012" fill="#000000" d="M 324.5,240.5 C 324.833,240.5 325.167,240.5 325.5,240.5C 325.315,241.17 324.981,241.17 324.5,240.5 Z"/></g>
<g><path style="opacity:1" fill="#9096a6" d="M 176.5,224.5 C 178.39,224.297 179.89,224.963 181,226.5C 182.541,228.477 183.041,230.477 182.5,232.5C 180.753,229.749 178.42,227.749 175.5,226.5C 173.337,226.745 171.67,227.745 170.5,229.5C 170.667,229.833 170.833,230.167 171,230.5C 172.808,228.604 174.975,228.104 177.5,229C 181.232,232.692 182.899,237.192 182.5,242.5C 182.107,245.864 181.94,249.197 182,252.5C 183.161,247.584 183.827,242.584 184,237.5C 184.923,239.034 185.423,240.701 185.5,242.5C 184.621,245.812 184.454,249.145 185,252.5C 185.988,249.576 186.654,246.576 187,243.5C 187.333,246.167 187.667,248.833 188,251.5C 188.241,248.711 188.908,246.044 190,243.5C 189.814,247.484 189.814,251.484 190,255.5C 190.944,251.391 191.778,247.391 192.5,243.5C 192.497,248.527 192.164,253.527 191.5,258.5C 187.154,258.666 182.821,258.499 178.5,258C 176.461,256.074 174.794,253.907 173.5,251.5C 175.139,250.527 176.473,249.194 177.5,247.5C 179.685,236.053 175.685,233.386 165.5,239.5C 163.973,235.341 164.806,231.674 168,228.5C 170.397,226.218 173.231,224.884 176.5,224.5 Z"/></g>
<g><path style="opacity:1" fill="#5c606a" d="M 177.5,247.5 C 176.473,249.194 175.139,250.527 173.5,251.5C 172.188,250.855 171.188,249.855 170.5,248.5C 172.694,248.642 175.027,248.309 177.5,247.5 Z"/></g>
<g><path style="opacity:1" fill="#848998" d="M 302.5,244.5 C 304.527,244.338 306.527,244.505 308.5,245C 292.604,249.579 276.437,252.746 260,254.5C 256.41,254.528 252.91,254.028 249.5,253C 267.289,250.073 284.956,247.239 302.5,244.5 Z"/></g>
<g><path style="opacity:0.006" fill="#000000" d="M 146.5,259.5 C 145.402,258.399 145.235,257.066 146,255.5C 146.49,256.793 146.657,258.127 146.5,259.5 Z"/></g>
<g><path style="opacity:1" fill="#7f8391" d="M 202.5,219.5 C 203.414,226.48 204.247,233.48 205,240.5C 209.749,241.305 214.582,241.805 219.5,242C 214.511,242.499 209.511,242.666 204.5,242.5C 204.608,247.87 204.275,253.203 203.5,258.5C 207.167,258.5 210.833,258.5 214.5,258.5C 206.975,259.748 199.308,259.748 191.5,258.5C 192.164,253.527 192.497,248.527 192.5,243.5C 193.5,243.5 194.5,243.5 195.5,243.5C 195.5,242.167 195.5,240.833 195.5,239.5C 194.81,235.51 194.643,231.51 195,227.5C 196.102,231.416 196.769,235.416 197,239.5C 197.723,233.896 197.223,228.396 195.5,223C 195.164,221.97 194.497,221.47 193.5,221.5C 194.209,220.596 195.209,220.263 196.5,220.5C 197.772,227.134 198.939,233.801 200,240.5C 200.427,233.656 199.593,226.989 197.5,220.5C 199.117,219.962 200.784,219.629 202.5,219.5 Z"/></g>
<g><path style="opacity:1" fill="#a7adbf" d="M 196.5,243.5 C 197.848,248.406 197.682,253.406 196,258.5C 196.251,253.544 196.418,248.544 196.5,243.5 Z"/></g>
<g><path style="opacity:1" fill="#a4aabd" d="M 196.5,220.5 C 196.833,220.5 197.167,220.5 197.5,220.5C 199.593,226.989 200.427,233.656 200,240.5C 198.939,233.801 197.772,227.134 196.5,220.5 Z"/></g>
<g><path style="opacity:0.007" fill="#000000" d="M 146.5,259.5 C 146.833,259.5 147.167,259.5 147.5,259.5C 147.167,264.833 146.833,264.833 146.5,259.5 Z"/></g>
<g><path style="opacity:0.01" fill="#000000" d="M 224.5,262.5 C 224.5,262.167 224.5,261.833 224.5,261.5C 231.167,261.833 231.167,262.167 224.5,262.5 Z"/></g>
<g><path style="opacity:0.008" fill="#000000" d="M 216.5,262.5 C 219.167,262.5 221.833,262.5 224.5,262.5C 221.833,263.833 219.167,263.833 216.5,262.5 Z"/></g>
<g><path style="opacity:0.01" fill="#000000" d="M 341.5,263.5 C 341.5,263.167 341.5,262.833 341.5,262.5C 343.424,262.711 343.757,263.377 342.5,264.5C 341.833,264.5 341.5,264.167 341.5,263.5 Z"/></g>
<g><path style="opacity:0.01" fill="#000000" d="M 147.5,265.5 C 148.525,265.897 148.692,266.563 148,267.5C 147.536,266.906 147.369,266.239 147.5,265.5 Z"/></g>
<g><path style="opacity:0.004" fill="#000000" d="M 203.5,268.5 C 203.369,267.761 203.536,267.094 204,266.5C 204.692,267.437 204.525,268.103 203.5,268.5 Z"/></g>
<g><path style="opacity:0.004" fill="#000000" d="M 202.5,268.5 C 202.833,268.5 203.167,268.5 203.5,268.5C 203.167,272.5 202.833,272.5 202.5,268.5 Z"/></g>
<g><path style="opacity:0.008" fill="#000000" d="M 150.5,271.5 C 150.631,272.239 150.464,272.906 150,273.5C 149.308,272.563 149.475,271.897 150.5,271.5 Z"/></g>
<g><path style="opacity:0.004" fill="#000000" d="M 201.5,272.5 C 202.833,273.167 202.833,273.833 201.5,274.5C 201.5,273.833 201.5,273.167 201.5,272.5 Z"/></g>
<g><path style="opacity:0.006" fill="#000000" d="M 150.5,274.5 C 151.525,274.897 151.692,275.563 151,276.5C 150.536,275.906 150.369,275.239 150.5,274.5 Z"/></g>
<g><path style="opacity:0.004" fill="#000000" d="M 200.5,274.5 C 200.833,274.5 201.167,274.5 201.5,274.5C 201.737,275.791 201.404,276.791 200.5,277.5C 200.5,276.5 200.5,275.5 200.5,274.5 Z"/></g>
<g><path style="opacity:0.004" fill="#000000" d="M 199.5,277.5 C 199.833,277.5 200.167,277.5 200.5,277.5C 200.315,278.17 199.981,278.17 199.5,277.5 Z"/></g>
<g><path style="opacity:0.004" fill="#000000" d="M 153.5,278.5 C 153.631,279.239 153.464,279.906 153,280.5C 152.308,279.563 152.475,278.897 153.5,278.5 Z"/></g>
<g><path style="opacity:0.004" fill="#000000" d="M 198.5,279.5 C 199.833,280.167 199.833,280.833 198.5,281.5C 198.5,280.833 198.5,280.167 198.5,279.5 Z"/></g>
<g><path style="opacity:0.006" fill="#000000" d="M 363.5,285.5 C 363.167,285.5 362.833,285.5 362.5,285.5C 361.833,285.5 361.5,285.167 361.5,284.5C 360.833,284.5 360.5,284.167 360.5,283.5C 359.833,283.5 359.5,283.167 359.5,282.5C 358.833,282.5 358.5,282.167 358.5,281.5C 358.369,280.761 358.536,280.094 359,279.5C 361.127,281.114 362.627,283.114 363.5,285.5 Z"/></g>
<g><path style="opacity:0.004" fill="#000000" d="M 153.5,281.5 C 154.833,282.167 154.833,282.167 153.5,281.5 Z"/></g>
<g><path style="opacity:0.008" fill="#000000" d="M 197.5,281.5 C 197.833,281.5 198.167,281.5 198.5,281.5C 198.315,282.17 197.981,282.17 197.5,281.5 Z"/></g>
<g><path style="opacity:0.004" fill="#000000" d="M 196.5,282.5 C 196.833,282.5 197.167,282.5 197.5,282.5C 197.672,283.492 197.338,284.158 196.5,284.5C 196.5,283.833 196.5,283.167 196.5,282.5 Z"/></g>
<g><path style="opacity:0.004" fill="#000000" d="M 156.5,284.5 C 155.833,285.167 155.833,285.167 156.5,284.5 Z"/></g>
<g><path style="opacity:0.006" fill="#000000" d="M 195.5,284.5 C 195.833,284.5 196.167,284.5 196.5,284.5C 196.672,285.492 196.338,286.158 195.5,286.5C 195.5,285.833 195.5,285.167 195.5,284.5 Z"/></g>
<g><path style="opacity:0.01" fill="#000000" d="M 363.5,286.5 C 363.5,286.167 363.5,285.833 363.5,285.5C 365.424,285.711 365.757,286.377 364.5,287.5C 363.833,287.5 363.5,287.167 363.5,286.5 Z"/></g>
<g><path style="opacity:0.008" fill="#000000" d="M 194.5,286.5 C 194.833,286.5 195.167,286.5 195.5,286.5C 195.315,287.17 194.981,287.17 194.5,286.5 Z"/></g>
<g><path style="opacity:0.012" fill="#000000" d="M 193.5,287.5 C 193.833,287.5 194.167,287.5 194.5,287.5C 194.315,288.17 193.981,288.17 193.5,287.5 Z"/></g>
<g><path style="opacity:0.004" fill="#000000" d="M 159.5,288.5 C 158.833,289.167 158.833,289.167 159.5,288.5 Z"/></g>
<g><path style="opacity:0.004" fill="#000000" d="M 192.5,288.5 C 192.833,288.5 193.167,288.5 193.5,288.5C 193.672,289.492 193.338,290.158 192.5,290.5C 192.5,289.833 192.5,289.167 192.5,288.5 Z"/></g>
<g><path style="opacity:0.004" fill="#000000" d="M 191.5,290.5 C 191.833,290.5 192.167,290.5 192.5,290.5C 192.315,291.17 191.981,291.17 191.5,290.5 Z"/></g>
<g><path style="opacity:0.012" fill="#000000" d="M 190.5,291.5 C 190.833,291.5 191.167,291.5 191.5,291.5C 191.315,292.17 190.981,292.17 190.5,291.5 Z"/></g>
<g><path style="opacity:0.008" fill="#000000" d="M 189.5,292.5 C 189.833,292.5 190.167,292.5 190.5,292.5C 190.315,293.17 189.981,293.17 189.5,292.5 Z"/></g>
<g><path style="opacity:0.012" fill="#000000" d="M 188.5,293.5 C 188.833,293.5 189.167,293.5 189.5,293.5C 189.315,294.17 188.981,294.17 188.5,293.5 Z"/></g>
<g><path style="opacity:0.008" fill="#000000" d="M 187.5,294.5 C 187.833,294.5 188.167,294.5 188.5,294.5C 188.315,295.17 187.981,295.17 187.5,294.5 Z"/></g>
<g><path style="opacity:0.004" fill="#000000" d="M 166.5,295.5 C 165.833,296.167 165.833,296.167 166.5,295.5 Z"/></g>
<g><path style="opacity:0.004" fill="#000000" d="M 168.5,296.5 C 167.833,297.167 167.833,297.167 168.5,296.5 Z"/></g>
<g><path style="opacity:0.012" fill="#000000" d="M 184.5,296.5 C 184.833,296.5 185.167,296.5 185.5,296.5C 185.315,297.17 184.981,297.17 184.5,296.5 Z"/></g>
<g><path style="opacity:0.004" fill="#000000" d="M 169.5,297.5 C 170.833,298.167 170.833,298.167 169.5,297.5 Z"/></g>
<g><path style="opacity:0.007" fill="#000000" d="M 380.5,302.5 C 382.463,303.96 384.296,305.627 386,307.5C 386.692,308.437 386.525,309.103 385.5,309.5C 384.833,309.5 384.5,309.167 384.5,308.5C 383.833,308.5 383.5,308.167 383.5,307.5C 382.833,307.5 382.5,307.167 382.5,306.5C 381.833,306.5 381.5,306.167 381.5,305.5C 380.833,305.5 380.5,305.167 380.5,304.5C 380.5,303.833 380.5,303.167 380.5,302.5 Z"/></g>
<g><path style="opacity:0.008" fill="#000000" d="M 408.5,332.5 C 407.833,331.167 407.833,331.167 408.5,332.5 Z"/></g>
<g><path style="opacity:0.008" fill="#000000" d="M 408.5,332.5 C 409.833,333.167 409.833,333.167 408.5,332.5 Z"/></g>
<g><path style="opacity:0.01" fill="#000000" d="M 392.5,342.5 C 392.5,342.167 392.5,341.833 392.5,341.5C 393.167,341.5 393.833,341.5 394.5,341.5C 394.158,342.338 393.492,342.672 392.5,342.5 Z"/></g>
<g><path style="opacity:0.012" fill="#000000" d="M 387.5,344.5 C 387.5,344.167 387.5,343.833 387.5,343.5C 388.167,343.5 388.833,343.5 389.5,343.5C 389.5,343.833 389.5,344.167 389.5,344.5C 388.833,344.5 388.167,344.5 387.5,344.5 Z"/></g>
</svg>
